ToneOZQSPinyinKaiSimplified-Regular.ufo
<glyph name="uni239C" format="2">
  <unicode hex="239C" />
  <unicode hex="239F" />
  <unicode hex="23A2" />
  <unicode hex="23A5" />
  <unicode hex="23AA" />
  <advance width="1024" />
  <outline>
    <contour>
      <point x="480" y="-123" type="line" />
      <point x="480" y="901" type="line" />
      <point x="544" y="901" type="line" />
      <point x="544" y="-123" type="line" />
    </contour>
  </outline>
</glyph>
<glyph name="uni2E87" format="2">
  <unicode hex="2E87" />
  <unicode hex="20628" />
  <advance width="1024" />
  <outline>
    <contour>
      <point x="816" y="718" type="qcurve" />
      <point x="810" y="697" type="line" />
      <point x="805" y="394" type="line" />
      <point x="805" y="368" type="line" />
      <point x="805" y="173" />
      <point x="858" y="72" type="qcurve" />
      <point x="880" y="31" />
      <point x="913" y="-2" />
      <point x="918" y="-2" type="qcurve" />
      <point x="927" y="-2" />
      <point x="955" y="163" type="qcurve" />
      <point x="961" y="198" />
      <point x="985" y="198" />
      <point x="985" y="165" type="qcurve" />
      <point x="985" y="160" type="line" />
      <point x="982" y="-56" />
      <point x="954" y="-76" type="qcurve" />
      <point x="945" y="-83" />
      <point x="929" y="-83" />
      <point x="912" y="-80" type="qcurve" />
      <point x="868" y="-70" />
      <point x="820" y="3" type="qcurve" />
      <point x="739" y="132" />
      <point x="739" y="377" type="qcurve" />
      <point x="739" y="395" type="line" />
      <point x="742" y="696" type="line" />
      <point x="264" y="666" type="line" />
      <point x="261" y="454" />
      <point x="244" y="257" />
      <point x="202" y="103" />
      <point x="147" y="-3" />
      <point x="97" y="-68" />
      <point x="60" y="-96" />
      <point x="52" y="-96" />
      <point x="52" y="-80" />
      <point x="74" y="-41" type="qcurve" />
      <point x="157" y="110" />
      <point x="180" y="272" type="qcurve" />
      <point x="195" y="386" />
      <point x="196" y="589" type="qcurve" />
      <point x="196" y="644" type="line" />
      <point x="196" y="699" />
      <point x="180" y="731" type="qcurve" />
      <point x="178" y="734" />
      <point x="178" y="737" type="qcurve" />
      <point x="178" y="743" />
      <point x="205" y="743" />
      <point x="265" y="722" type="qcurve" />
      <point x="759" y="755" type="line" />
      <point x="767" y="755" type="line" />
      <point x="782" y="755" />
      <point x="816" y="730" />
    </contour>
  </outline>
</glyph>
<glyph name="uni2EAA" format="2">
  <unicode hex="2EAA" />
  <unicode hex="24D14" />
  <advance width="1024" />
  <outline>
    <contour>
      <point x="335" y="703" type="qcurve" />
      <point x="372" y="696" type="line" />
      <point x="385" y="696" type="line" />
      <point x="390" y="696" />
      <point x="394" y="697" type="qcurve" />
      <point x="651" y="716" type="line" />
      <point x="656" y="716" type="line" />
      <point x="681" y="716" />
      <point x="707" y="694" type="qcurve" />
      <point x="716" y="685" />
      <point x="716" y="671" />
      <point x="703" y="660" />
      <point x="651" y="589" />
      <point x="571" y="502" type="qcurve" />
      <point x="572" y="383" type="line" />
      <point x="629" y="387" type="line" />
      <point x="653" y="389" />
      <point x="673" y="397" />
      <point x="692" y="397" />
      <point x="705" y="387" type="qcurve" />
      <point x="734" y="363" />
      <point x="733" y="346" type="qcurve" />
      <point x="733" y="334" />
      <point x="708" y="332" type="qcurve" />
      <point x="573" y="324" type="line" />
      <point x="575" y="84" type="line" />
      <point x="650" y="99" />
      <point x="773" y="129" />
      <point x="797" y="129" />
      <point x="797" y="121" type="qcurve" />
      <point x="797" y="105" />
      <point x="580" y="31" />
      <point x="333" y="-33" />
      <point x="289" y="-33" />
      <point x="270" y="-15" type="qcurve" />
      <point x="241" y="14" />
      <point x="242" y="32" type="qcurve" />
      <point x="242" y="39" />
      <point x="249" y="39" type="qcurve" />
      <point x="287" y="35" type="line" />
      <point x="291" y="35" />
      <point x="377" y="46" type="qcurve" />
      <point x="366" y="375" type="line" />
      <point x="365" y="399" />
      <point x="350" y="427" />
      <point x="350" y="429" type="qcurve" />
      <point x="350" y="438" />
      <point x="376" y="438" />
      <point x="420" y="426" />
      <point x="432" y="411" />
      <point x="432" y="401" type="qcurve" />
      <point x="439" y="57" type="line" />
      <point x="514" y="71" type="line" />
      <point x="508" y="474" type="line" />
      <point x="508" y="501" />
      <point x="489" y="530" type="qcurve" />
      <point x="488" y="533" />
      <point x="488" y="536" type="qcurve" />
      <point x="488" y="543" />
      <point x="514" y="543" />
      <point x="530" y="540" type="qcurve" />
      <point x="579" y="589" />
      <point x="622" y="654" type="qcurve" />
      <point x="421" y="639" type="line" />
      <point x="405" y="637" />
      <point x="371" y="637" />
      <point x="358" y="648" type="qcurve" />
      <point x="328" y="674" />
      <point x="329" y="696" type="qcurve" />
      <point x="329" y="703" />
    </contour>
  </outline>
</glyph>
<glyph name="uni2EAE" format="2">
  <unicode hex="2EAE" />
  <unicode hex="25AD7" />
  <advance width="1024" />
  <outline>
    <contour>
      <point x="236" y="486" />
      <point x="262" y="549" />
      <point x="262" y="571" />
      <point x="260" y="582" type="qcurve" />
      <point x="260" y="594" />
      <point x="283" y="594" />
      <point x="314" y="578" />
      <point x="340" y="554" />
      <point x="340" y="535" />
      <point x="311" y="483" type="qcurve" />
      <point x="297" y="459" type="line" />
      <point x="459" y="470" type="line" />
      <point x="486" y="473" />
      <point x="501" y="479" />
      <point x="517" y="479" />
      <point x="543" y="462" />
      <point x="561" y="439" />
      <point x="561" y="432" type="qcurve" />
      <point x="561" y="420" />
      <point x="537" y="418" type="qcurve" />
      <point x="342" y="404" type="line" />
      <point x="393" y="359" />
      <point x="446" y="295" />
      <point x="446" y="274" />
      <point x="415" y="249" />
      <point x="395" y="249" />
      <point x="357" y="307" />
      <point x="302" y="366" type="qcurve" />
      <point x="294" y="374" />
      <point x="294" y="390" />
      <point x="307" y="402" type="qcurve" />
      <point x="261" y="399" type="line" />
      <point x="211" y="320" />
      <point x="125" y="225" />
      <point x="69" y="184" />
      <point x="54" y="184" />
      <point x="54" y="202" />
      <point x="88" y="244" />
      <point x="140" y="322" />
      <point x="193" y="407" />
    </contour>
    <contour>
      <point x="675" y="588" />
      <point x="705" y="562" />
      <point x="705" y="536" />
      <point x="666" y="471" type="qcurve" />
      <point x="859" y="485" type="line" />
      <point x="883" y="487" />
      <point x="902" y="494" />
      <point x="916" y="494" />
      <point x="942" y="476" />
      <point x="961" y="454" />
      <point x="961" y="446" type="qcurve" />
      <point x="961" y="435" />
      <point x="938" y="433" type="qcurve" />
      <point x="732" y="419" type="line" />
      <point x="806" y="345" />
      <point x="844" y="291" type="qcurve" />
      <point x="857" y="274" />
      <point x="857" y="257" />
      <point x="839" y="239" />
      <point x="819" y="227" />
      <point x="809" y="227" />
      <point x="793" y="250" type="qcurve" />
      <point x="731" y="336" />
      <point x="685" y="381" type="qcurve" />
      <point x="681" y="386" />
      <point x="674" y="394" />
      <point x="674" y="404" />
      <point x="685" y="416" type="qcurve" />
      <point x="632" y="413" type="line" />
      <point x="550" y="287" />
      <point x="487" y="246" type="qcurve" />
      <point x="463" y="231" />
      <point x="451" y="230" />
      <point x="451" y="248" />
      <point x="518" y="337" />
      <point x="591" y="466" />
      <point x="628" y="561" />
      <point x="628" y="582" type="qcurve" />
      <point x="628" y="590" type="line" />
      <point x="628" y="605" />
      <point x="638" y="605" type="qcurve" />
      <point x="642" y="605" />
    </contour>
  </outline>
</glyph>
<glyph name="uni2EB3" format="2">
  <unicode hex="2EB3" />
  <unicode hex="2626A" />
  <advance width="1024" />
  <outline>
    <contour>
      <point x="771" y="302" type="qcurve" />
      <point x="771" y="267" />
      <point x="653" y="267" type="qcurve" />
      <point x="581" y="267" />
      <point x="540" y="301" />
      <point x="540" y="352" type="qcurve" />
      <point x="540" y="356" type="line" />
      <point x="541" y="456" type="line" />
      <point x="445" y="451" type="line" />
      <point x="467" y="435" />
      <point x="485" y="417" />
      <point x="485" y="402" />
      <point x="450" y="361" />
      <point x="420" y="336" type="qcurve" />
      <point x="351" y="276" />
      <point x="289" y="250" type="qcurve" />
      <point x="276" y="244" />
      <point x="259" y="244" />
      <point x="259" y="250" type="qcurve" />
      <point x="259" y="259" />
      <point x="270" y="268" type="qcurve" />
      <point x="404" y="378" />
      <point x="415" y="444" type="qcurve" />
      <point x="416" y="450" type="line" />
      <point x="220" y="440" type="line" />
      <point x="239" y="225" type="line" />
      <point x="239" y="221" type="line" />
      <point x="239" y="201" />
      <point x="195" y="201" />
      <point x="163" y="221" />
      <point x="163" y="233" type="qcurve" />
      <point x="167" y="273" type="line" />
      <point x="167" y="278" />
      <point x="167" y="289" />
      <point x="166" y="293" type="qcurve" />
      <point x="153" y="436" type="line" />
      <point x="151" y="470" />
      <point x="125" y="506" />
      <point x="125" y="518" />
      <point x="154" y="518" />
      <point x="207" y="501" type="qcurve" />
      <point x="830" y="530" type="line" />
      <point x="849" y="531" type="line" />
      <point x="863" y="531" />
      <point x="895" y="509" />
      <point x="895" y="489" />
      <point x="886" y="476" />
      <point x="885" y="467" type="qcurve" />
      <point x="859" y="226" type="line" />
      <point x="857" y="204" />
      <point x="840" y="205" type="qcurve" />
      <point x="831" y="205" />
      <point x="815" y="211" type="qcurve" />
      <point x="782" y="224" />
      <point x="782" y="240" type="qcurve" />
      <point x="782" y="245" />
      <point x="795" y="279" />
      <point x="798" y="305" type="qcurve" />
      <point x="815" y="468" type="line" />
      <point x="606" y="459" type="line" />
      <point x="604" y="360" type="line" />
      <point x="604" y="341" />
      <point x="614" y="329" />
      <point x="630" y="327" type="qcurve" />
      <point x="648" y="326" type="line" />
      <point x="678" y="326" />
      <point x="715" y="343" />
      <point x="728" y="343" />
      <point x="753" y="328" />
      <point x="771" y="307" />
    </contour>
  </outline>
</glyph>
<glyph name="uni2EBD" format="2">
  <unicode hex="2EBD" />
  <unicode hex="26951" />
  <advance width="1024" />
  <outline>
    <contour>
      <point x="855" y="101" type="line" />
      <point x="888" y="64" />
      <point x="888" y="41" />
      <point x="867" y="37" />
      <point x="853" y="36" type="qcurve" />
      <point x="605" y="30" type="line" />
      <point x="598" y="30" type="line" />
      <point x="586" y="30" />
      <point x="563" y="38" />
      <point x="546" y="55" type="qcurve" />
      <point x="531" y="75" />
      <point x="530" y="96" />
      <point x="541" y="96" />
      <point x="561" y="89" />
      <point x="595" y="89" type="qcurve" />
      <point x="784" y="93" type="line" />
      <point x="797" y="316" type="line" />
      <point x="605" y="306" type="line" />
      <point x="598" y="306" type="line" />
      <point x="550" y="306" />
      <point x="531" y="359" type="qcurve" />
      <point x="530" y="361" />
      <point x="530" y="374" />
      <point x="541" y="374" />
      <point x="562" y="367" />
      <point x="585" y="367" type="qcurve" />
      <point x="595" y="367" type="line" />
      <point x="801" y="377" type="line" />
      <point x="811" y="559" type="line" />
      <point x="592" y="548" type="line" />
      <point x="586" y="547" />
      <point x="581" y="547" type="qcurve" />
      <point x="571" y="547" type="line" />
      <point x="549" y="547" />
      <point x="541" y="556" type="qcurve" />
      <point x="516" y="580" />
      <point x="510" y="609" type="qcurve" />
      <point x="510" y="616" />
      <point x="518" y="616" type="qcurve" />
      <point x="523" y="616" />
      <point x="547" y="610" />
      <point x="571" y="610" type="qcurve" />
      <point x="580" y="610" type="line" />
      <point x="829" y="625" type="line" />
      <point x="844" y="626" type="line" />
      <point x="858" y="626" />
      <point x="888" y="602" />
      <point x="888" y="586" />
      <point x="884" y="574" />
      <point x="883" y="568" type="qcurve" />
    </contour>
    <contour>
      <point x="175" y="-18" type="qcurve" />
      <point x="180" y="18" />
      <point x="180" y="32" type="qcurve" />
      <point x="153" y="490" type="line" />
      <point x="150" y="535" />
      <point x="134" y="569" />
      <point x="134" y="574" type="qcurve" />
      <point x="134" y="582" />
      <point x="161" y="583" />
      <point x="204" y="569" type="qcurve" />
      <point x="301" y="614" />
      <point x="429" y="736" type="qcurve" />
      <point x="447" y="754" />
      <point x="458" y="795" />
      <point x="474" y="795" />
      <point x="485" y="782" type="qcurve" />
      <point x="517" y="749" />
      <point x="517" y="727" type="qcurve" />
      <point x="517" y="716" />
      <point x="504" y="705" type="qcurve" />
      <point x="360" y="583" />
      <point x="218" y="519" type="qcurve" />
      <point x="228" y="346" type="line" />
      <point x="375" y="353" type="line" />
      <point x="398" y="355" />
      <point x="422" y="366" />
      <point x="438" y="366" />
      <point x="479" y="330" />
      <point x="479" y="313" type="qcurve" />
      <point x="479" y="299" />
      <point x="446" y="297" type="qcurve" />
      <point x="231" y="287" type="line" />
      <point x="244" y="79" type="line" />
      <point x="387" y="84" type="line" />
      <point x="405" y="84" />
      <point x="432" y="95" />
      <point x="440" y="95" />
      <point x="457" y="88" type="qcurve" />
      <point x="502" y="70" />
      <point x="502" y="48" type="qcurve" />
      <point x="502" y="31" />
      <point x="465" y="28" type="qcurve" />
      <point x="248" y="22" type="line" />
      <point x="251" y="-35" type="line" />
      <point x="251" y="-38" type="line" />
      <point x="251" y="-61" />
      <point x="230" y="-60" type="qcurve" />
      <point x="224" y="-60" />
      <point x="211" y="-54" type="qcurve" />
      <point x="175" y="-37" />
    </contour>
  </outline>
</glyph>
<glyph name="uni2ECA" format="2">
  <unicode hex="2ECA" />
  <unicode hex="27FB7" />
  <advance width="1024" />
  <outline>
    <contour>
      <point x="648" y="698" type="line" />
      <point x="406" y="682" type="line" />
      <point x="420" y="535" type="line" />
      <point x="631" y="546" type="line" />
    </contour>
    <contour>
      <point x="662" y="753" type="line" />
      <point x="678" y="754" type="line" />
      <point x="692" y="754" />
      <point x="720" y="732" />
      <point x="720" y="715" />
      <point x="714" y="706" />
      <point x="713" y="700" type="qcurve" />
      <point x="689" y="546" type="line" />
      <point x="713" y="519" />
      <point x="713" y="502" />
      <point x="696" y="499" />
      <point x="684" y="498" type="qcurve" />
      <point x="569" y="492" type="line" />
      <point x="566" y="355" type="line" />
      <point x="643" y="366" type="line" />
      <point x="651" y="367" />
      <point x="670" y="369" />
      <point x="682" y="373" />
      <point x="696" y="373" />
      <point x="721" y="358" />
      <point x="739" y="338" />
      <point x="739" y="331" type="qcurve" />
      <point x="739" y="318" />
      <point x="716" y="315" type="qcurve" />
      <point x="565" y="301" type="line" />
      <point x="561" y="101" type="line" />
      <point x="681" y="129" />
      <point x="758" y="153" />
      <point x="785" y="153" />
      <point x="785" y="143" type="qcurve" />
      <point x="785" y="130" />
      <point x="745" y="115" type="qcurve" />
      <point x="643" y="74" />
      <point x="422" y="6" type="qcurve" />
      <point x="314" y="-25" />
      <point x="297" y="-25" type="qcurve" />
      <point x="267" y="-25" />
      <point x="246" y="23" type="qcurve" />
      <point x="238" y="39" type="line" />
      <point x="238" y="44" />
      <point x="247" y="44" type="qcurve" />
      <point x="260" y="44" type="line" />
      <point x="274" y="44" />
      <point x="307" y="49" type="qcurve" />
      <point x="360" y="59" type="line" />
      <point x="351" y="344" type="line" />
      <point x="351" y="369" />
      <point x="338" y="389" type="qcurve" />
      <point x="337" y="392" />
      <point x="337" y="394" type="qcurve" />
      <point x="337" y="404" />
      <point x="376" y="404" />
      <point x="400" y="391" type="qcurve" />
      <point x="413" y="384" />
      <point x="414" y="371" type="qcurve" />
      <point x="418" y="72" type="line" />
      <point x="438" y="76" />
      <point x="478" y="84" />
      <point x="499" y="88" type="qcurve" />
      <point x="506" y="487" type="line" />
      <point x="425" y="483" type="line" />
      <point x="426" y="468" type="line" />
      <point x="426" y="465" type="line" />
      <point x="426" y="445" />
      <point x="408" y="444" type="qcurve" />
      <point x="388" y="444" />
      <point x="360" y="468" />
      <point x="360" y="482" type="qcurve" />
      <point x="360" y="489" type="line" />
      <point x="362" y="505" />
      <point x="362" y="514" type="qcurve" />
      <point x="362" y="527" type="line" />
      <point x="362" y="531" />
      <point x="361" y="536" type="qcurve" />
      <point x="346" y="677" type="line" />
      <point x="343" y="706" />
      <point x="328" y="739" />
      <point x="328" y="744" type="qcurve" />
      <point x="328" y="752" />
      <point x="355" y="753" />
      <point x="401" y="734" type="qcurve" />
    </contour>
  </outline>
</glyph>
<glyph name="uni2EDE" format="2">
  <unicode hex="2EDE" />
  <unicode hex="2967F" />
  <advance width="1024" />
  <outline>
    <contour>
      <point x="597" y="340" type="line" />
      <point x="427" y="332" type="line" />
      <point x="427" y="269" type="line" />
      <point x="592" y="276" type="line" />
    </contour>
    <contour>
      <point x="604" y="442" type="line" />
      <point x="427" y="434" type="line" />
      <point x="427" y="377" type="line" />
      <point x="600" y="385" type="line" />
    </contour>
    <contour>
      <point x="647" y="281" type="line" />
      <point x="671" y="253" />
      <point x="671" y="236" />
      <point x="656" y="233" />
      <point x="645" y="232" type="qcurve" />
      <point x="427" y="223" type="line" />
      <point x="426" y="162" type="line" />
      <point x="582" y="169" type="line" />
      <point x="609" y="172" />
      <point x="620" y="176" />
      <point x="636" y="176" />
      <point x="675" y="147" />
      <point x="675" y="134" type="qcurve" />
      <point x="675" y="124" />
      <point x="653" y="122" type="qcurve" />
      <point x="426" y="112" type="line" />
      <point x="426" y="49" type="line" />
      <point x="607" y="55" type="line" />
      <point x="627" y="55" />
      <point x="645" y="62" />
      <point x="654" y="62" />
      <point x="667" y="55" type="qcurve" />
      <point x="701" y="36" />
      <point x="700" y="18" type="qcurve" />
      <point x="700" y="8" />
      <point x="679" y="6" type="qcurve" />
      <point x="426" y="-3" type="line" />
      <point x="426" y="-68" type="line" />
      <point x="426" y="-93" />
      <point x="406" y="-92" type="qcurve" />
      <point x="401" y="-92" />
      <point x="387" y="-88" type="qcurve" />
      <point x="353" y="-75" />
      <point x="353" y="-51" type="qcurve" />
      <point x="353" y="-45" />
      <point x="361" y="-17" />
      <point x="361" y="14" type="qcurve" />
      <point x="367" y="432" type="line" />
      <point x="367" y="452" />
      <point x="354" y="484" type="qcurve" />
      <point x="303" y="433" />
      <point x="244" y="393" />
      <point x="229" y="393" />
      <point x="229" y="408" />
      <point x="239" y="417" type="qcurve" />
      <point x="335" y="517" />
      <point x="410" y="639" type="qcurve" />
      <point x="487" y="761" />
      <point x="493" y="817" type="qcurve" />
      <point x="495" y="829" />
      <point x="509" y="829" />
      <point x="522" y="820" type="qcurve" />
      <point x="561" y="794" />
      <point x="561" y="775" type="qcurve" />
      <point x="561" y="766" />
      <point x="542" y="735" type="qcurve" />
      <point x="619" y="691" />
      <point x="698" y="629" type="qcurve" />
      <point x="709" y="621" />
      <point x="710" y="606" />
      <point x="707" y="595" type="qcurve" />
      <point x="697" y="563" />
      <point x="680" y="563" type="qcurve" />
      <point x="673" y="563" />
      <point x="658" y="575" type="qcurve" />
      <point x="588" y="641" />
      <point x="514" y="688" type="qcurve" />
      <point x="479" y="631" />
      <point x="438" y="580" type="qcurve" />
      <point x="442" y="579" />
      <point x="446" y="579" type="qcurve" />
      <point x="466" y="579" type="line" />
      <point x="549" y="584" type="line" />
      <point x="566" y="586" />
      <point x="585" y="594" />
      <point x="594" y="594" />
      <point x="605" y="588" type="qcurve" />
      <point x="636" y="570" />
      <point x="636" y="555" type="qcurve" />
      <point x="636" y="545" />
      <point x="614" y="542" type="qcurve" />
      <point x="485" y="532" type="line" />
      <point x="468" y="531" type="line" />
      <point x="442" y="531" />
      <point x="426" y="562" type="qcurve" />
      <point x="413" y="547" />
      <point x="387" y="517" />
      <point x="373" y="503" type="qcurve" />
      <point x="393" y="498" />
      <point x="428" y="481" type="qcurve" />
      <point x="618" y="493" type="line" />
      <point x="631" y="493" type="line" />
      <point x="650" y="493" />
      <point x="674" y="472" />
      <point x="674" y="452" />
      <point x="667" y="440" />
      <point x="666" y="435" type="qcurve" />
    </contour>
  </outline>
</glyph>
<glyph name="uni3001" format="2">
  <unicode hex="3001" />
  <advance width="1024" />
  <outline>
    <contour>
      <point x="296" y="-32" />
      <point x="267" y="-70" />
      <point x="236" y="-70" />
      <point x="225" y="-54" type="qcurve" />
      <point x="167" y="29" />
      <point x="80" y="109" type="qcurve" />
      <point x="73" y="116" />
      <point x="73" y="135" />
      <point x="90" y="151" />
      <point x="110" y="151" />
      <point x="139" y="131" type="qcurve" />
      <point x="214" y="85" />
      <point x="286" y="13" type="qcurve" />
      <point x="296" y="4" />
    </contour>
  </outline>
</glyph>
<glyph name="uni3002" format="2">
  <unicode hex="3002" />
  <advance width="1024" />
  <outline>
    <contour>
      <point x="255" y="-34" />
      <point x="304" y="15" />
      <point x="304" y="86" />
      <point x="255" y="135" />
      <point x="184" y="135" />
      <point x="134" y="86" />
      <point x="134" y="15" />
      <point x="184" y="-34" />
    </contour>
    <contour>
      <point x="323" y="153" />
      <point x="359" y="89" />
      <point x="359" y="12" />
      <point x="322" y="-51" />
      <point x="258" y="-89" />
      <point x="181" y="-89" />
      <point x="117" y="-51" />
      <point x="79" y="12" />
      <point x="79" y="89" />
      <point x="118" y="153" />
      <point x="183" y="190" />
      <point x="260" y="190" />
    </contour>
  </outline>
</glyph>
<glyph name="uniFE10" format="2">
  <unicode hex="FE10" />
  <advance width="1024" />
  <outline>
    <contour>
      <point x="800" y="620" type="qcurve" />
      <point x="787" y="620" />
      <point x="786" y="634" type="qcurve" />
      <point x="786" y="644" />
      <point x="810" y="659" />
      <point x="845" y="701" />
      <point x="851" y="718" type="qcurve" />
      <point x="836" y="724" />
      <point x="829" y="727" type="qcurve" />
      <point x="802" y="751" />
      <point x="803" y="803" />
      <point x="839" y="830" />
      <point x="885" y="830" />
      <point x="916" y="792" />
      <point x="920" y="765" type="qcurve" />
      <point x="920" y="757" type="line" />
      <point x="920" y="712" />
      <point x="831" y="620" />
    </contour>
  </outline>
</glyph>
<glyph name="uniFE11" format="2">
  <unicode hex="FE11" />
  <advance width="1024" />
  <outline>
    <contour>
      <point x="935" y="636" />
      <point x="906" y="598" />
      <point x="874" y="598" />
      <point x="864" y="613" type="qcurve" />
      <point x="806" y="696" />
      <point x="719" y="776" type="qcurve" />
      <point x="712" y="783" />
      <point x="712" y="803" />
      <point x="729" y="818" />
      <point x="749" y="818" />
      <point x="778" y="799" type="qcurve" />
      <point x="853" y="753" />
      <point x="925" y="681" type="qcurve" />
      <point x="935" y="672" />
    </contour>
  </outline>
</glyph>
<glyph name="uniFE12" format="2">
  <unicode hex="FE12" />
  <advance width="1024" />
  <outline>
    <contour>
      <point x="839" y="599" />
      <point x="888" y="648" />
      <point x="888" y="719" />
      <point x="839" y="768" />
      <point x="768" y="768" />
      <point x="718" y="719" />
      <point x="718" y="648" />
      <point x="768" y="599" />
    </contour>
    <contour>
      <point x="906" y="785" />
      <point x="943" y="722" />
      <point x="943" y="645" />
      <point x="905" y="582" />
      <point x="842" y="544" />
      <point x="765" y="544" />
      <point x="700" y="582" />
      <point x="663" y="645" />
      <point x="663" y="722" />
      <point x="701" y="785" />
      <point x="767" y="823" />
      <point x="844" y="823" />
    </contour>
  </outline>
</glyph>
<glyph name="uniFE13" format="2">
  <unicode hex="FE13" />
  <advance width="1024" />
  <outline>
    <contour>
      <point x="735" y="233" />
      <point x="769" y="191" />
      <point x="769" y="150" />
      <point x="743" y="123" />
      <point x="694" y="123" />
      <point x="662" y="165" />
      <point x="662" y="209" />
      <point x="692" y="233" />
    </contour>
    <contour>
      <point x="735" y="613" />
      <point x="769" y="571" />
      <point x="769" y="529" />
      <point x="743" y="503" />
      <point x="694" y="503" />
      <point x="662" y="545" />
      <point x="662" y="589" />
      <point x="692" y="613" />
    </contour>
  </outline>
</glyph>
<glyph name="uniFE14" format="2">
  <unicode hex="FE14" />
  <advance width="1024" />
  <outline>
    <contour>
      <point x="657" y="30" type="qcurve" />
      <point x="643" y="30" />
      <point x="643" y="44" type="qcurve" />
      <point x="643" y="52" />
      <point x="649" y="56" type="qcurve" />
      <point x="668" y="69" />
      <point x="703" y="111" />
      <point x="708" y="129" type="qcurve" />
      <point x="689" y="129" />
      <point x="659" y="165" />
      <point x="659" y="207" />
      <point x="692" y="231" />
      <point x="734" y="231" />
      <point x="763" y="194" />
      <point x="767" y="161" type="qcurve" />
      <point x="767" y="126" />
      <point x="708" y="50" />
      <point x="666" y="32" type="qcurve" />
      <point x="661" y="30" />
    </contour>
    <contour>
      <point x="736" y="615" />
      <point x="770" y="573" />
      <point x="770" y="531" />
      <point x="744" y="505" />
      <point x="695" y="505" />
      <point x="663" y="547" />
      <point x="663" y="591" />
      <point x="693" y="615" />
    </contour>
  </outline>
</glyph>
<glyph name="uniFE15" format="2">
  <unicode hex="FE15" />
  <advance width="1024" />
  <outline>
    <contour>
      <point x="734" y="103" />
      <point x="768" y="61" />
      <point x="768" y="17" />
      <point x="742" y="-9" />
      <point x="693" y="-9" />
      <point x="660" y="30" />
      <point x="660" y="74" />
      <point x="687" y="103" />
    </contour>
    <contour>
      <point x="675" y="712" type="line" />
      <point x="675" y="729" />
      <point x="720" y="729" />
      <point x="762" y="711" />
      <point x="762" y="697" type="qcurve" />
      <point x="762" y="696" type="line" />
      <point x="761" y="680" />
      <point x="757" y="646" />
      <point x="756" y="624" type="qcurve" />
      <point x="743" y="228" type="line" />
      <point x="743" y="177" type="line" />
      <point x="743" y="169" />
      <point x="714" y="169" />
      <point x="684" y="181" />
      <point x="684" y="191" type="qcurve" />
      <point x="684" y="193" type="line" />
      <point x="686" y="209" />
      <point x="686" y="232" type="qcurve" />
      <point x="680" y="629" type="line" />
      <point x="680" y="679" />
      <point x="675" y="710" type="qcurve" />
    </contour>
  </outline>
</glyph>
<glyph name="uniFE16" format="2">
  <unicode hex="FE16" />
  <advance width="1024" />
  <outline>
    <contour>
      <point x="735" y="103" />
      <point x="769" y="61" />
      <point x="769" y="17" />
      <point x="743" y="-9" />
      <point x="694" y="-9" />
      <point x="662" y="30" />
      <point x="662" y="74" />
      <point x="688" y="103" />
    </contour>
    <contour>
      <point x="745" y="260" type="qcurve" />
      <point x="745" y="242" type="line" />
      <point x="745" y="230" />
      <point x="756" y="188" type="qcurve" />
      <point x="756" y="172" />
      <point x="689" y="172" />
      <point x="677" y="206" />
      <point x="677" y="253" />
      <point x="687" y="322" />
      <point x="734" y="380" />
      <point x="797" y="428" />
      <point x="827" y="453" type="qcurve" />
      <point x="898" y="509" />
      <point x="898" y="582" type="qcurve" />
      <point x="898" y="619" />
      <point x="830" y="670" />
      <point x="724" y="670" />
      <point x="623" y="631" />
      <point x="593" y="601" type="qcurve" />
      <point x="568" y="573" />
      <point x="556" y="531" type="qcurve" />
      <point x="552" y="518" />
      <point x="522" y="518" />
      <point x="489" y="546" />
      <point x="489" y="561" type="qcurve" />
      <point x="489" y="565" />
      <point x="500" y="584" type="qcurve" />
      <point x="527" y="632" />
      <point x="588" y="675" type="qcurve" />
      <point x="669" y="730" />
      <point x="781" y="730" type="qcurve" />
      <point x="833" y="730" />
      <point x="921" y="696" />
      <point x="973" y="633" />
      <point x="973" y="535" />
      <point x="930" y="461" />
      <point x="865" y="406" />
      <point x="799" y="358" />
      <point x="745" y="301" />
    </contour>
  </outline>
</glyph>
<glyph name="uniFF01" format="2">
  <unicode hex="FF01" />
  <advance width="1024" />
  <outline>
    <contour>
      <point x="251" y="103" />
      <point x="285" y="61" />
      <point x="285" y="17" />
      <point x="259" y="-9" />
      <point x="210" y="-9" />
      <point x="177" y="30" />
      <point x="177" y="74" />
      <point x="204" y="103" />
    </contour>
    <contour>
      <point x="191" y="712" type="line" />
      <point x="191" y="729" />
      <point x="237" y="729" />
      <point x="279" y="711" />
      <point x="279" y="697" type="qcurve" />
      <point x="279" y="696" type="line" />
      <point x="278" y="680" />
      <point x="273" y="646" />
      <point x="272" y="624" type="qcurve" />
      <point x="260" y="228" type="line" />
      <point x="260" y="177" type="line" />
      <point x="260" y="169" />
      <point x="230" y="169" />
      <point x="201" y="181" />
      <point x="201" y="191" type="qcurve" />
      <point x="201" y="193" type="line" />
      <point x="203" y="209" />
      <point x="203" y="232" type="qcurve" />
      <point x="197" y="629" type="line" />
      <point x="197" y="679" />
      <point x="191" y="710" type="qcurve" />
    </contour>
  </outline>
</glyph>
<glyph name="uniFF1B" format="2">
  <unicode hex="FF1B" />
  <advance width="1024" />
  <outline>
    <contour>
      <point x="195" y="-102" type="qcurve" />
      <point x="181" y="-102" />
      <point x="180" y="-88" type="qcurve" />
      <point x="180" y="-80" />
      <point x="186" y="-76" type="qcurve" />
      <point x="205" y="-63" />
      <point x="241" y="-22" />
      <point x="245" y="-3" type="qcurve" />
      <point x="243" y="-2" />
      <point x="224" y="2" />
      <point x="219" y="6" type="qcurve" />
      <point x="196" y="26" />
      <point x="197" y="75" />
      <point x="229" y="99" />
      <point x="271" y="99" />
      <point x="300" y="62" />
      <point x="304" y="29" type="qcurve" />
      <point x="304" y="-6" />
      <point x="245" y="-82" />
      <point x="203" y="-100" type="qcurve" />
      <point x="199" y="-102" />
    </contour>
    <contour>
      <point x="273" y="483" />
      <point x="307" y="441" />
      <point x="307" y="399" />
      <point x="282" y="373" />
      <point x="232" y="373" />
      <point x="200" y="415" />
      <point x="200" y="459" />
      <point x="230" y="483" />
    </contour>
  </outline>
</glyph>
<glyph name="uniFF1F" format="2">
  <unicode hex="FF1F" />
  <advance width="1024" />
  <outline>
    <contour>
      <point x="297" y="103" />
      <point x="331" y="61" />
      <point x="331" y="17" />
      <point x="305" y="-9" />
      <point x="256" y="-9" />
      <point x="223" y="30" />
      <point x="223" y="74" />
      <point x="250" y="103" />
    </contour>
    <contour>
      <point x="307" y="260" type="qcurve" />
      <point x="307" y="242" type="line" />
      <point x="307" y="230" />
      <point x="317" y="188" type="qcurve" />
      <point x="317" y="172" />
      <point x="251" y="172" />
      <point x="239" y="206" />
      <point x="239" y="253" />
      <point x="249" y="322" />
      <point x="292" y="380" />
      <point x="348" y="428" />
      <point x="376" y="453" type="qcurve" />
      <point x="439" y="509" />
      <point x="439" y="582" type="qcurve" />
      <point x="439" y="619" />
      <point x="392" y="670" />
      <point x="290" y="670" />
      <point x="204" y="631" />
      <point x="152" y="577" />
      <point x="138" y="531" type="qcurve" />
      <point x="134" y="518" />
      <point x="104" y="518" />
      <point x="72" y="546" />
      <point x="72" y="567" />
      <point x="74" y="570" type="qcurve" />
      <point x="122" y="655" />
      <point x="254" y="730" />
      <point x="422" y="730" />
      <point x="514" y="654" />
      <point x="514" y="535" />
      <point x="475" y="461" />
      <point x="417" y="406" />
      <point x="356" y="358" />
      <point x="307" y="300" />
    </contour>
  </outline>
</glyph>
<glyph name="u1D372" format="2">
  <unicode hex="1D372" />
  <advance width="1024" />
  <outline>
    <contour>
      <point x="161" y="641" type="qcurve" />
      <point x="138" y="641" />
      <point x="128" y="648" type="qcurve" />
      <point x="116" y="658" />
      <point x="96" y="692" />
      <point x="96" y="706" type="qcurve" />
      <point x="96" y="712" />
      <point x="102" y="712" type="qcurve" />
      <point x="111" y="710" type="line" />
      <point x="126" y="705" />
      <point x="153" y="705" type="qcurve" />
      <point x="165" y="705" type="line" />
      <point x="813" y="742" type="line" />
      <point x="837" y="743" />
      <point x="855" y="751" type="qcurve" />
      <point x="857" y="752" />
      <point x="862" y="752" type="qcurve" />
      <point x="877" y="752" />
      <point x="924" y="712" />
      <point x="924" y="699" type="qcurve" />
      <point x="924" y="685" />
      <point x="897" y="683" type="qcurve" />
      <point x="187" y="642" type="line" />
      <point x="177" y="641" />
    </contour>
  </outline>
</glyph>
<glyph name="u1D373" format="2">
  <unicode hex="1D373" />
  <advance width="1024" />
  <outline>
    <contour>
      <point x="161" y="641" type="qcurve" />
      <point x="138" y="641" />
      <point x="128" y="648" type="qcurve" />
      <point x="116" y="658" />
      <point x="96" y="692" />
      <point x="96" y="706" type="qcurve" />
      <point x="96" y="712" />
      <point x="102" y="712" type="qcurve" />
      <point x="111" y="710" type="line" />
      <point x="126" y="705" />
      <point x="153" y="705" type="qcurve" />
      <point x="165" y="705" type="line" />
      <point x="813" y="742" type="line" />
      <point x="837" y="743" />
      <point x="855" y="751" type="qcurve" />
      <point x="857" y="752" />
      <point x="862" y="752" type="qcurve" />
      <point x="877" y="752" />
      <point x="924" y="712" />
      <point x="924" y="699" type="qcurve" />
      <point x="924" y="685" />
      <point x="897" y="683" type="qcurve" />
      <point x="547" y="663" type="line" />
      <point x="548" y="20" type="line" />
      <point x="548" y="-8" />
      <point x="529" y="-7" type="qcurve" />
      <point x="517" y="-7" />
      <point x="502" y="2" type="qcurve" />
      <point x="484" y="11" />
      <point x="469" y="29" />
      <point x="469" y="42" type="qcurve" />
      <point x="469" y="49" />
      <point x="470" y="54" type="qcurve" />
      <point x="477" y="92" />
      <point x="477" y="116" type="qcurve" />
      <point x="477" y="658" type="line" />
      <point x="187" y="642" type="line" />
      <point x="177" y="641" />
    </contour>
  </outline>
</glyph>
<glyph name="u1D374" format="2">
  <unicode hex="1D374" />
  <advance width="1024" />
  <outline>
    <contour>
      <point x="547" y="411" type="line" />
      <point x="750" y="419" type="line" />
      <point x="779" y="421" />
      <point x="801" y="427" type="qcurve" />
      <point x="809" y="429" />
      <point x="812" y="429" type="qcurve" />
      <point x="821" y="429" />
      <point x="852" y="410" />
      <point x="876" y="383" />
      <point x="876" y="373" type="qcurve" />
      <point x="876" y="360" />
      <point x="850" y="357" type="qcurve" />
      <point x="547" y="346" type="line" />
      <point x="548" y="20" type="line" />
      <point x="548" y="-8" />
      <point x="529" y="-7" type="qcurve" />
      <point x="517" y="-7" />
      <point x="502" y="2" type="qcurve" />
      <point x="484" y="11" />
      <point x="469" y="29" />
      <point x="469" y="42" type="qcurve" />
      <point x="469" y="49" />
      <point x="470" y="54" type="qcurve" />
      <point x="477" y="92" />
      <point x="477" y="116" type="qcurve" />
      <point x="477" y="658" type="line" />
      <point x="187" y="642" type="line" />
      <point x="177" y="641" />
      <point x="161" y="641" type="qcurve" />
      <point x="138" y="641" />
      <point x="128" y="648" type="qcurve" />
      <point x="116" y="658" />
      <point x="96" y="692" />
      <point x="96" y="706" type="qcurve" />
      <point x="96" y="712" />
      <point x="102" y="712" type="qcurve" />
      <point x="111" y="710" type="line" />
      <point x="126" y="705" />
      <point x="153" y="705" type="qcurve" />
      <point x="165" y="705" type="line" />
      <point x="813" y="742" type="line" />
      <point x="837" y="743" />
      <point x="855" y="751" type="qcurve" />
      <point x="857" y="752" />
      <point x="862" y="752" type="qcurve" />
      <point x="877" y="752" />
      <point x="924" y="712" />
      <point x="924" y="699" type="qcurve" />
      <point x="924" y="685" />
      <point x="897" y="683" type="qcurve" />
      <point x="547" y="663" type="line" />
    </contour>
  </outline>
</glyph>
<glyph name="u1D375" format="2">
  <unicode hex="1D375" />
  <advance width="1024" />
  <outline>
    <contour>
      <point x="470" y="54" type="qcurve" />
      <point x="477" y="92" />
      <point x="477" y="116" type="qcurve" />
      <point x="477" y="658" type="line" />
      <point x="187" y="642" type="line" />
      <point x="177" y="641" />
      <point x="161" y="641" type="qcurve" />
      <point x="138" y="641" />
      <point x="128" y="648" type="qcurve" />
      <point x="116" y="658" />
      <point x="96" y="692" />
      <point x="96" y="706" type="qcurve" />
      <point x="96" y="712" />
      <point x="102" y="712" type="qcurve" />
      <point x="111" y="710" type="line" />
      <point x="126" y="705" />
      <point x="153" y="705" type="qcurve" />
      <point x="165" y="705" type="line" />
      <point x="813" y="742" type="line" />
      <point x="837" y="743" />
      <point x="855" y="751" type="qcurve" />
      <point x="857" y="752" />
      <point x="862" y="752" type="qcurve" />
      <point x="877" y="752" />
      <point x="924" y="712" />
      <point x="924" y="699" type="qcurve" />
      <point x="924" y="685" />
      <point x="897" y="683" type="qcurve" />
      <point x="547" y="663" type="line" />
      <point x="547" y="411" type="line" />
      <point x="750" y="419" type="line" />
      <point x="779" y="421" />
      <point x="801" y="427" type="qcurve" />
      <point x="809" y="429" />
      <point x="812" y="429" type="qcurve" />
      <point x="821" y="429" />
      <point x="852" y="410" />
      <point x="876" y="383" />
      <point x="876" y="373" type="qcurve" />
      <point x="876" y="360" />
      <point x="850" y="357" type="qcurve" />
      <point x="547" y="346" type="line" />
      <point x="548" y="20" type="line" />
      <point x="548" y="-8" />
      <point x="529" y="-7" type="qcurve" />
      <point x="517" y="-7" />
      <point x="502" y="2" type="qcurve" />
      <point x="484" y="11" />
      <point x="469" y="29" />
      <point x="469" y="42" type="qcurve" />
      <point x="469" y="49" />
    </contour>
    <contour>
      <point x="298" y="36" type="line" />
      <point x="298" y="8" />
      <point x="280" y="8" type="qcurve" />
      <point x="268" y="8" />
      <point x="252" y="17" type="qcurve" />
      <point x="234" y="26" />
      <point x="219" y="44" />
      <point x="219" y="57" type="qcurve" />
      <point x="219" y="64" />
      <point x="220" y="70" type="qcurve" />
      <point x="227" y="108" />
      <point x="227" y="131" type="qcurve" />
      <point x="227" y="183" type="line" />
      <point x="225" y="404" type="line" />
      <point x="225" y="434" />
      <point x="210" y="457" type="qcurve" />
      <point x="206" y="464" />
      <point x="206" y="468" type="qcurve" />
      <point x="206" y="475" />
      <point x="217" y="475" type="qcurve" />
      <point x="223" y="475" />
      <point x="264" y="465" />
      <point x="298" y="446" />
      <point x="298" y="434" type="qcurve" />
    </contour>
  </outline>
</glyph>
<glyph name="u1D376" format="2">
  <unicode hex="1D376" />
  <advance width="1024" />
  <outline>
    <contour>
      <point x="548" y="65" type="line" />
      <point x="842" y="76" type="line" />
      <point x="871" y="78" />
      <point x="893" y="84" type="qcurve" />
      <point x="901" y="86" />
      <point x="904" y="86" type="qcurve" />
      <point x="913" y="86" />
      <point x="944" y="67" />
      <point x="968" y="40" />
      <point x="968" y="30" type="qcurve" />
      <point x="968" y="17" />
      <point x="942" y="14" type="qcurve" />
      <point x="127" y="-15" type="line" />
      <point x="101" y="-15" />
      <point x="91" y="-6" type="qcurve" />
      <point x="75" y="7" />
      <point x="58" y="40" />
      <point x="58" y="48" type="qcurve" />
      <point x="58" y="54" />
      <point x="65" y="54" type="qcurve" />
      <point x="69" y="54" />
      <point x="72" y="53" type="qcurve" />
      <point x="95" y="48" />
      <point x="117" y="48" type="qcurve" />
      <point x="139" y="49" type="line" />
      <point x="228" y="52" type="line" />
      <point x="225" y="404" type="line" />
      <point x="225" y="434" />
      <point x="210" y="457" type="qcurve" />
      <point x="206" y="464" />
      <point x="206" y="468" type="qcurve" />
      <point x="206" y="475" />
      <point x="217" y="475" type="qcurve" />
      <point x="223" y="475" />
      <point x="264" y="465" />
      <point x="298" y="446" />
      <point x="298" y="434" type="qcurve" />
      <point x="300" y="55" type="line" />
      <point x="477" y="62" type="line" />
      <point x="477" y="658" type="line" />
      <point x="187" y="642" type="line" />
      <point x="177" y="641" />
      <point x="161" y="641" type="qcurve" />
      <point x="138" y="641" />
      <point x="128" y="648" type="qcurve" />
      <point x="116" y="658" />
      <point x="96" y="692" />
      <point x="96" y="706" type="qcurve" />
      <point x="96" y="712" />
      <point x="102" y="712" type="qcurve" />
      <point x="111" y="710" type="line" />
      <point x="126" y="705" />
      <point x="153" y="705" type="qcurve" />
      <point x="165" y="705" type="line" />
      <point x="813" y="742" type="line" />
      <point x="837" y="743" />
      <point x="855" y="751" type="qcurve" />
      <point x="857" y="752" />
      <point x="862" y="752" type="qcurve" />
      <point x="877" y="752" />
      <point x="924" y="712" />
      <point x="924" y="699" type="qcurve" />
      <point x="924" y="685" />
      <point x="897" y="683" type="qcurve" />
      <point x="547" y="663" type="line" />
      <point x="547" y="411" type="line" />
      <point x="750" y="419" type="line" />
      <point x="779" y="421" />
      <point x="801" y="427" type="qcurve" />
      <point x="809" y="429" />
      <point x="812" y="429" type="qcurve" />
      <point x="821" y="429" />
      <point x="852" y="410" />
      <point x="876" y="383" />
      <point x="876" y="373" type="qcurve" />
      <point x="876" y="360" />
      <point x="850" y="357" type="qcurve" />
      <point x="547" y="346" type="line" />
    </contour>
  </outline>
</glyph>
<glyph name="u1F100" format="2">
  <unicode hex="1F100" />
  <advance width="1024" />
  <outline>
    <contour>
      <point x="927" y="113" />
      <point x="966" y="69" />
      <point x="966" y="19" />
      <point x="928" y="-14" />
      <point x="884" y="-14" />
      <point x="848" y="31" />
      <point x="848" y="80" />
      <point x="882" y="113" />
    </contour>
    <contour>
      <point x="394" y="95" />
      <point x="456" y="46" />
      <point x="563" y="46" />
      <point x="599" y="90" type="qcurve" />
      <point x="668" y="173" />
      <point x="668" y="575" />
      <point x="590" y="641" type="qcurve" />
      <point x="560" y="666" />
      <point x="526" y="666" type="qcurve" />
      <point x="460" y="666" />
      <point x="349" y="493" />
      <point x="349" y="211" />
      <point x="378" y="137" type="qcurve" />
    </contour>
    <contour>
      <point x="332" y="625" />
      <point x="367" y="675" />
      <point x="389" y="675" />
      <point x="399" y="663" type="qcurve" />
      <point x="457" y="731" />
      <point x="595" y="730" />
      <point x="644" y="682" type="qcurve" />
      <point x="741" y="587" />
      <point x="741" y="362" type="qcurve" />
      <point x="741" y="203" />
      <point x="684" y="96" type="qcurve" />
      <point x="621" y="-19" />
      <point x="387" y="-18" />
      <point x="328" y="89" type="qcurve" />
      <point x="276" y="184" />
      <point x="275" y="473" />
      <point x="315" y="580" type="qcurve" />
    </contour>
  </outline>
</glyph>
<glyph name="u1F110" format="2">
  <unicode hex="1F110" />
  <advance width="1024" />
  <outline>
    <contour>
      <point x="622" y="329" type="line" />
      <point x="554" y="485" />
      <point x="517" y="582" type="qcurve" />
      <point x="462" y="460" />
      <point x="396" y="319" type="qcurve" />
    </contour>
    <contour>
      <point x="555" y="646" type="qcurve" />
      <point x="552" y="630" type="line" />
      <point x="552" y="626" />
      <point x="634" y="422" />
      <point x="756" y="156" />
      <point x="792" y="104" type="qcurve" />
      <point x="795" y="100" />
      <point x="795" y="96" type="qcurve" />
      <point x="795" y="87" />
      <point x="765" y="76" />
      <point x="729" y="76" />
      <point x="725" y="86" type="qcurve" />
      <point x="714" y="125" />
      <point x="674" y="212" />
      <point x="642" y="282" type="qcurve" />
      <point x="375" y="270" type="line" />
      <point x="371" y="270" type="line" />
      <point x="358" y="241" />
      <point x="344" y="215" type="qcurve" />
      <point x="319" y="166" type="line" />
      <point x="307" y="143" />
      <point x="289" y="91" type="qcurve" />
      <point x="285" y="77" />
      <point x="221" y="77" />
      <point x="221" y="92" type="qcurve" />
      <point x="221" y="96" />
      <point x="233" y="118" />
      <point x="266" y="179" />
      <point x="299" y="245" />
      <point x="309" y="264" type="qcurve" />
      <point x="303" y="264" type="line" />
      <point x="294" y="264" />
      <point x="278" y="295" />
      <point x="278" y="319" />
      <point x="286" y="319" type="qcurve" />
      <point x="288" y="319" type="line" />
      <point x="295" y="318" />
      <point x="302" y="318" type="qcurve" />
      <point x="336" y="318" type="line" />
      <point x="441" y="525" />
      <point x="480" y="625" type="qcurve" />
      <point x="483" y="633" />
      <point x="487" y="664" />
      <point x="496" y="673" />
      <point x="521" y="673" />
      <point x="555" y="656" />
    </contour>
    <contour>
      <point x="212" y="-83" type="qcurve" />
      <point x="204" y="-83" />
      <point x="159" y="-40" />
      <point x="100" y="41" />
      <point x="45" y="155" />
      <point x="9" y="295" />
      <point x="9" y="457" />
      <point x="45" y="598" />
      <point x="100" y="711" />
      <point x="159" y="792" />
      <point x="204" y="835" />
      <point x="212" y="835" type="qcurve" />
      <point x="226" y="835" />
      <point x="226" y="819" type="qcurve" />
      <point x="226" y="811" />
      <point x="221" y="806" type="qcurve" />
      <point x="125" y="692" />
      <point x="92" y="524" type="qcurve" />
      <point x="78" y="448" />
      <point x="78" y="303" />
      <point x="92" y="227" type="qcurve" />
      <point x="125" y="61" />
      <point x="221" y="-54" type="qcurve" />
      <point x="226" y="-59" />
      <point x="226" y="-68" type="qcurve" />
      <point x="226" y="-83" />
    </contour>
    <contour>
      <point x="811" y="-83" type="qcurve" />
      <point x="797" y="-83" />
      <point x="797" y="-68" type="qcurve" />
      <point x="797" y="-60" />
      <point x="802" y="-54" type="qcurve" />
      <point x="898" y="62" />
      <point x="930" y="227" type="qcurve" />
      <point x="945" y="303" />
      <point x="945" y="449" />
      <point x="930" y="524" type="qcurve" />
      <point x="898" y="692" />
      <point x="802" y="806" type="qcurve" />
      <point x="797" y="811" />
      <point x="797" y="819" type="qcurve" />
      <point x="797" y="834" />
      <point x="811" y="835" type="qcurve" />
      <point x="819" y="835" />
      <point x="842" y="813" type="qcurve" />
      <point x="901" y="758" />
      <point x="950" y="654" type="qcurve" />
      <point x="1013" y="523" />
      <point x="1014" y="229" />
      <point x="950" y="98" type="qcurve" />
      <point x="901" y="-7" />
      <point x="842" y="-61" type="qcurve" />
      <point x="819" y="-83" />
    </contour>
  </outline>
</glyph>
<glyph name="u1F111" format="2">
  <unicode hex="1F111" />
  <advance width="1024" />
  <outline>
    <contour>
      <point x="535" y="380" type="qcurve" />
      <point x="516" y="381" />
      <point x="440" y="381" />
      <point x="387" y="375" type="qcurve" />
      <point x="387" y="117" type="line" />
      <point x="680" y="117" />
      <point x="680" y="260" type="qcurve" />
      <point x="680" y="325" />
      <point x="627" y="354" type="qcurve" />
      <point x="586" y="377" />
    </contour>
    <contour>
      <point x="633" y="541" type="qcurve" />
      <point x="633" y="624" />
      <point x="497" y="624" type="qcurve" />
      <point x="440" y="624" />
      <point x="387" y="609" type="qcurve" />
      <point x="387" y="423" type="line" />
      <point x="400" y="423" type="line" />
      <point x="556" y="423" />
      <point x="612" y="487" type="qcurve" />
      <point x="633" y="511" />
    </contour>
    <contour>
      <point x="330" y="602" type="line" />
      <point x="319" y="605" />
      <point x="296" y="629" />
      <point x="296" y="644" />
      <point x="302" y="647" type="qcurve" />
      <point x="331" y="659" />
      <point x="474" y="674" />
      <point x="507" y="674" type="qcurve" />
      <point x="606" y="674" />
      <point x="692" y="600" />
      <point x="692" y="481" />
      <point x="637" y="441" type="qcurve" />
      <point x="612" y="424" />
      <point x="589" y="415" type="qcurve" />
      <point x="629" y="411" />
      <point x="697" y="370" />
      <point x="738" y="304" />
      <point x="738" y="208" />
      <point x="716" y="173" type="qcurve" />
      <point x="674" y="108" />
      <point x="575" y="90" type="qcurve" />
      <point x="503" y="76" />
      <point x="351" y="76" />
      <point x="300" y="82" />
      <point x="286" y="93" />
      <point x="286" y="103" />
      <point x="296" y="113" />
      <point x="303" y="113" type="qcurve" />
      <point x="317" y="113" type="line" />
      <point x="325" y="113" />
      <point x="330" y="114" type="qcurve" />
    </contour>
    <contour>
      <point x="212" y="-83" type="qcurve" />
      <point x="204" y="-83" />
      <point x="159" y="-40" />
      <point x="100" y="41" />
      <point x="45" y="155" />
      <point x="9" y="295" />
      <point x="9" y="457" />
      <point x="45" y="598" />
      <point x="100" y="711" />
      <point x="159" y="792" />
      <point x="204" y="835" />
      <point x="212" y="835" type="qcurve" />
      <point x="226" y="835" />
      <point x="226" y="819" type="qcurve" />
      <point x="226" y="811" />
      <point x="221" y="806" type="qcurve" />
      <point x="125" y="692" />
      <point x="92" y="524" type="qcurve" />
      <point x="78" y="448" />
      <point x="78" y="303" />
      <point x="92" y="227" type="qcurve" />
      <point x="125" y="61" />
      <point x="221" y="-54" type="qcurve" />
      <point x="226" y="-59" />
      <point x="226" y="-68" type="qcurve" />
      <point x="226" y="-83" />
    </contour>
    <contour>
      <point x="811" y="-83" type="qcurve" />
      <point x="797" y="-83" />
      <point x="797" y="-68" type="qcurve" />
      <point x="797" y="-60" />
      <point x="802" y="-54" type="qcurve" />
      <point x="898" y="62" />
      <point x="930" y="227" type="qcurve" />
      <point x="945" y="303" />
      <point x="945" y="449" />
      <point x="930" y="524" type="qcurve" />
      <point x="898" y="692" />
      <point x="802" y="806" type="qcurve" />
      <point x="797" y="811" />
      <point x="797" y="819" type="qcurve" />
      <point x="797" y="834" />
      <point x="811" y="835" type="qcurve" />
      <point x="819" y="835" />
      <point x="842" y="813" type="qcurve" />
      <point x="901" y="758" />
      <point x="950" y="654" type="qcurve" />
      <point x="1013" y="523" />
      <point x="1014" y="229" />
      <point x="950" y="98" type="qcurve" />
      <point x="901" y="-7" />
      <point x="842" y="-61" type="qcurve" />
      <point x="819" y="-83" />
    </contour>
  </outline>
</glyph>
<glyph name="u1F112" format="2">
  <unicode hex="1F112" />
  <advance width="1024" />
  <outline>
    <contour>
      <point x="752" y="250" />
      <point x="774" y="250" />
      <point x="774" y="225" />
      <point x="738" y="172" />
      <point x="705" y="142" type="qcurve" />
      <point x="622" y="69" />
      <point x="511" y="70" type="qcurve" />
      <point x="354" y="70" />
      <point x="291" y="178" type="qcurve" />
      <point x="257" y="235" />
      <point x="257" y="317" type="qcurve" />
      <point x="257" y="473" />
      <point x="342" y="575" type="qcurve" />
      <point x="428" y="675" />
      <point x="553" y="676" type="qcurve" />
      <point x="646" y="676" />
      <point x="699" y="638" type="qcurve" />
      <point x="721" y="623" />
      <point x="739" y="599" />
      <point x="739" y="597" type="qcurve" />
      <point x="739" y="585" />
      <point x="717" y="556" />
      <point x="697" y="556" />
      <point x="687" y="572" />
      <point x="672" y="586" type="qcurve" />
      <point x="630" y="623" />
      <point x="488" y="623" />
      <point x="383" y="548" />
      <point x="317" y="416" />
      <point x="317" y="329" type="qcurve" />
      <point x="317" y="220" />
      <point x="428" y="122" />
      <point x="595" y="122" />
      <point x="678" y="178" type="qcurve" />
      <point x="717" y="204" />
      <point x="742" y="238" type="qcurve" />
    </contour>
    <contour>
      <point x="212" y="-83" type="qcurve" />
      <point x="204" y="-83" />
      <point x="159" y="-40" />
      <point x="100" y="41" />
      <point x="45" y="155" />
      <point x="9" y="295" />
      <point x="9" y="457" />
      <point x="45" y="598" />
      <point x="100" y="711" />
      <point x="159" y="792" />
      <point x="204" y="835" />
      <point x="212" y="835" type="qcurve" />
      <point x="226" y="835" />
      <point x="226" y="819" type="qcurve" />
      <point x="226" y="811" />
      <point x="221" y="806" type="qcurve" />
      <point x="125" y="692" />
      <point x="92" y="524" type="qcurve" />
      <point x="78" y="448" />
      <point x="78" y="303" />
      <point x="92" y="227" type="qcurve" />
      <point x="125" y="61" />
      <point x="221" y="-54" type="qcurve" />
      <point x="226" y="-59" />
      <point x="226" y="-68" type="qcurve" />
      <point x="226" y="-83" />
    </contour>
    <contour>
      <point x="811" y="-83" type="qcurve" />
      <point x="797" y="-83" />
      <point x="797" y="-68" type="qcurve" />
      <point x="797" y="-60" />
      <point x="802" y="-54" type="qcurve" />
      <point x="898" y="62" />
      <point x="930" y="227" type="qcurve" />
      <point x="945" y="303" />
      <point x="945" y="449" />
      <point x="930" y="524" type="qcurve" />
      <point x="898" y="692" />
      <point x="802" y="806" type="qcurve" />
      <point x="797" y="811" />
      <point x="797" y="819" type="qcurve" />
      <point x="797" y="834" />
      <point x="811" y="835" type="qcurve" />
      <point x="819" y="835" />
      <point x="842" y="813" type="qcurve" />
      <point x="901" y="758" />
      <point x="950" y="654" type="qcurve" />
      <point x="1013" y="523" />
      <point x="1014" y="229" />
      <point x="950" y="98" type="qcurve" />
      <point x="901" y="-7" />
      <point x="842" y="-61" type="qcurve" />
      <point x="819" y="-83" />
    </contour>
  </outline>
</glyph>
<glyph name="u1F113" format="2">
  <unicode hex="1F113" />
  <advance width="1024" />
  <outline>
    <contour>
      <point x="369" y="118" type="line" />
      <point x="534" y="118" />
      <point x="634" y="193" type="qcurve" />
      <point x="722" y="259" />
      <point x="722" y="492" />
      <point x="568" y="624" />
      <point x="470" y="624" type="qcurve" />
      <point x="416" y="624" />
      <point x="369" y="610" type="qcurve" />
    </contour>
    <contour>
      <point x="358" y="78" type="line" />
      <point x="265" y="78" />
      <point x="265" y="96" type="qcurve" />
      <point x="265" y="106" />
      <point x="289" y="113" />
      <point x="310" y="113" type="qcurve" />
      <point x="310" y="603" type="line" />
      <point x="299" y="605" />
      <point x="276" y="630" />
      <point x="276" y="646" />
      <point x="283" y="649" type="qcurve" />
      <point x="314" y="662" />
      <point x="445" y="675" />
      <point x="474" y="675" type="qcurve" />
      <point x="557" y="675" />
      <point x="696" y="602" />
      <point x="780" y="470" />
      <point x="780" y="312" />
      <point x="738" y="212" />
      <point x="702" y="176" type="qcurve" />
      <point x="633" y="109" />
      <point x="455" y="78" />
      <point x="375" y="78" type="qcurve" />
    </contour>
    <contour>
      <point x="212" y="-83" type="qcurve" />
      <point x="204" y="-83" />
      <point x="159" y="-40" />
      <point x="100" y="41" />
      <point x="45" y="155" />
      <point x="9" y="295" />
      <point x="9" y="457" />
      <point x="45" y="598" />
      <point x="100" y="711" />
      <point x="159" y="792" />
      <point x="204" y="835" />
      <point x="212" y="835" type="qcurve" />
      <point x="226" y="835" />
      <point x="226" y="819" type="qcurve" />
      <point x="226" y="811" />
      <point x="221" y="806" type="qcurve" />
      <point x="125" y="692" />
      <point x="92" y="524" type="qcurve" />
      <point x="78" y="448" />
      <point x="78" y="303" />
      <point x="92" y="227" type="qcurve" />
      <point x="125" y="61" />
      <point x="221" y="-54" type="qcurve" />
      <point x="226" y="-59" />
      <point x="226" y="-68" type="qcurve" />
      <point x="226" y="-83" />
    </contour>
    <contour>
      <point x="811" y="-83" type="qcurve" />
      <point x="797" y="-83" />
      <point x="797" y="-68" type="qcurve" />
      <point x="797" y="-60" />
      <point x="802" y="-54" type="qcurve" />
      <point x="898" y="62" />
      <point x="930" y="227" type="qcurve" />
      <point x="945" y="303" />
      <point x="945" y="449" />
      <point x="930" y="524" type="qcurve" />
      <point x="898" y="692" />
      <point x="802" y="806" type="qcurve" />
      <point x="797" y="811" />
      <point x="797" y="819" type="qcurve" />
      <point x="797" y="834" />
      <point x="811" y="835" type="qcurve" />
      <point x="819" y="835" />
      <point x="842" y="813" type="qcurve" />
      <point x="901" y="758" />
      <point x="950" y="654" type="qcurve" />
      <point x="1013" y="523" />
      <point x="1014" y="229" />
      <point x="950" y="98" type="qcurve" />
      <point x="901" y="-7" />
      <point x="842" y="-61" type="qcurve" />
      <point x="819" y="-83" />
    </contour>
  </outline>
</glyph>
<glyph name="u1F114" format="2">
  <unicode hex="1F114" />
  <advance width="1024" />
  <outline>
    <contour>
      <point x="645" y="137" type="line" />
      <point x="714" y="139" type="line" />
      <point x="715" y="139" type="line" />
      <point x="726" y="139" />
      <point x="741" y="109" />
      <point x="741" y="83" />
      <point x="732" y="83" type="qcurve" />
      <point x="731" y="83" type="line" />
      <point x="659" y="85" type="line" />
      <point x="645" y="85" type="line" />
      <point x="415" y="82" type="line" />
      <point x="370" y="76" type="line" />
      <point x="359" y="76" />
      <point x="335" y="104" />
      <point x="335" y="115" type="qcurve" />
      <point x="341" y="154" type="line" />
      <point x="341" y="370" type="line" />
      <point x="332" y="375" />
      <point x="318" y="401" />
      <point x="318" y="419" />
      <point x="325" y="419" type="qcurve" />
      <point x="327" y="419" type="line" />
      <point x="341" y="418" type="line" />
      <point x="341" y="610" type="line" />
      <point x="338" y="652" type="line" />
      <point x="338" y="663" />
      <point x="361" y="664" />
      <point x="392" y="654" />
      <point x="393" y="653" type="qcurve" />
      <point x="618" y="668" type="line" />
      <point x="636" y="670" />
      <point x="680" y="675" />
      <point x="698" y="675" />
      <point x="715" y="646" />
      <point x="715" y="620" />
      <point x="705" y="620" type="qcurve" />
      <point x="618" y="620" type="line" />
      <point x="397" y="604" type="line" />
      <point x="397" y="419" type="line" />
      <point x="572" y="429" type="line" />
      <point x="590" y="431" />
      <point x="634" y="436" />
      <point x="652" y="436" />
      <point x="669" y="407" />
      <point x="669" y="380" />
      <point x="658" y="380" type="qcurve" />
      <point x="573" y="380" type="line" />
      <point x="397" y="370" type="line" />
      <point x="397" y="133" type="line" />
    </contour>
    <contour>
      <point x="212" y="-83" type="qcurve" />
      <point x="204" y="-83" />
      <point x="159" y="-40" />
      <point x="100" y="41" />
      <point x="45" y="155" />
      <point x="9" y="295" />
      <point x="9" y="457" />
      <point x="45" y="598" />
      <point x="100" y="711" />
      <point x="159" y="792" />
      <point x="204" y="835" />
      <point x="212" y="835" type="qcurve" />
      <point x="226" y="835" />
      <point x="226" y="819" type="qcurve" />
      <point x="226" y="811" />
      <point x="221" y="806" type="qcurve" />
      <point x="125" y="692" />
      <point x="92" y="524" type="qcurve" />
      <point x="78" y="448" />
      <point x="78" y="303" />
      <point x="92" y="227" type="qcurve" />
      <point x="125" y="61" />
      <point x="221" y="-54" type="qcurve" />
      <point x="226" y="-59" />
      <point x="226" y="-68" type="qcurve" />
      <point x="226" y="-83" />
    </contour>
    <contour>
      <point x="811" y="-83" type="qcurve" />
      <point x="797" y="-83" />
      <point x="797" y="-68" type="qcurve" />
      <point x="797" y="-60" />
      <point x="802" y="-54" type="qcurve" />
      <point x="898" y="62" />
      <point x="930" y="227" type="qcurve" />
      <point x="945" y="303" />
      <point x="945" y="449" />
      <point x="930" y="524" type="qcurve" />
      <point x="898" y="692" />
      <point x="802" y="806" type="qcurve" />
      <point x="797" y="811" />
      <point x="797" y="819" type="qcurve" />
      <point x="797" y="834" />
      <point x="811" y="835" type="qcurve" />
      <point x="819" y="835" />
      <point x="842" y="813" type="qcurve" />
      <point x="901" y="758" />
      <point x="950" y="654" type="qcurve" />
      <point x="1013" y="523" />
      <point x="1014" y="229" />
      <point x="950" y="98" type="qcurve" />
      <point x="901" y="-7" />
      <point x="842" y="-61" type="qcurve" />
      <point x="819" y="-83" />
    </contour>
  </outline>
</glyph>
<glyph name="u1F115" format="2">
  <unicode hex="1F115" />
  <advance width="1024" />
  <outline>
    <contour>
      <point x="359" y="610" type="line" />
      <point x="356" y="645" type="line" />
      <point x="356" y="652" type="line" />
      <point x="356" y="658" />
      <point x="360" y="664" />
      <point x="379" y="664" />
      <point x="411" y="654" />
      <point x="412" y="653" type="qcurve" />
      <point x="636" y="668" type="line" />
      <point x="655" y="670" />
      <point x="698" y="675" />
      <point x="717" y="675" />
      <point x="733" y="646" />
      <point x="733" y="620" />
      <point x="724" y="620" type="qcurve" />
      <point x="688" y="620" type="line" />
      <point x="660" y="620" />
      <point x="637" y="618" type="qcurve" />
      <point x="418" y="603" type="line" />
      <point x="418" y="419" type="line" />
      <point x="591" y="429" type="line" />
      <point x="609" y="431" />
      <point x="652" y="436" />
      <point x="671" y="436" />
      <point x="687" y="407" />
      <point x="687" y="380" />
      <point x="677" y="380" type="qcurve" />
      <point x="592" y="380" type="line" />
      <point x="418" y="370" type="line" />
      <point x="418" y="173" type="line" />
      <point x="418" y="163" />
      <point x="419" y="129" />
      <point x="420" y="95" />
      <point x="420" y="76" />
      <point x="389" y="76" />
      <point x="357" y="90" />
      <point x="357" y="100" type="qcurve" />
      <point x="359" y="174" type="line" />
      <point x="359" y="370" type="line" />
      <point x="350" y="375" />
      <point x="337" y="401" />
      <point x="337" y="419" />
      <point x="343" y="419" type="qcurve" />
      <point x="345" y="419" type="line" />
      <point x="359" y="418" type="line" />
    </contour>
    <contour>
      <point x="212" y="-83" type="qcurve" />
      <point x="204" y="-83" />
      <point x="159" y="-40" />
      <point x="100" y="41" />
      <point x="45" y="155" />
      <point x="9" y="295" />
      <point x="9" y="457" />
      <point x="45" y="598" />
      <point x="100" y="711" />
      <point x="159" y="792" />
      <point x="204" y="835" />
      <point x="212" y="835" type="qcurve" />
      <point x="226" y="835" />
      <point x="226" y="819" type="qcurve" />
      <point x="226" y="811" />
      <point x="221" y="806" type="qcurve" />
      <point x="125" y="692" />
      <point x="92" y="524" type="qcurve" />
      <point x="78" y="448" />
      <point x="78" y="303" />
      <point x="92" y="227" type="qcurve" />
      <point x="125" y="61" />
      <point x="221" y="-54" type="qcurve" />
      <point x="226" y="-59" />
      <point x="226" y="-68" type="qcurve" />
      <point x="226" y="-83" />
    </contour>
    <contour>
      <point x="811" y="-83" type="qcurve" />
      <point x="797" y="-83" />
      <point x="797" y="-68" type="qcurve" />
      <point x="797" y="-60" />
      <point x="802" y="-54" type="qcurve" />
      <point x="898" y="62" />
      <point x="930" y="227" type="qcurve" />
      <point x="945" y="303" />
      <point x="945" y="449" />
      <point x="930" y="524" type="qcurve" />
      <point x="898" y="692" />
      <point x="802" y="806" type="qcurve" />
      <point x="797" y="811" />
      <point x="797" y="819" type="qcurve" />
      <point x="797" y="834" />
      <point x="811" y="835" type="qcurve" />
      <point x="819" y="835" />
      <point x="842" y="813" type="qcurve" />
      <point x="901" y="758" />
      <point x="950" y="654" type="qcurve" />
      <point x="1013" y="523" />
      <point x="1014" y="229" />
      <point x="950" y="98" type="qcurve" />
      <point x="901" y="-7" />
      <point x="842" y="-61" type="qcurve" />
      <point x="819" y="-83" />
    </contour>
  </outline>
</glyph>
<glyph name="u1F117" format="2">
  <unicode hex="1F117" />
  <advance width="1024" />
  <outline>
    <contour>
      <point x="665" y="99" type="qcurve" />
      <point x="667" y="173" type="line" />
      <point x="667" y="384" type="line" />
      <point x="662" y="384" type="line" />
      <point x="600" y="386" type="line" />
      <point x="594" y="386" />
      <point x="582" y="386" />
      <point x="575" y="385" type="qcurve" />
      <point x="362" y="373" type="line" />
      <point x="362" y="171" type="line" />
      <point x="366" y="83" type="line" />
      <point x="366" y="75" />
      <point x="335" y="75" />
      <point x="303" y="88" />
      <point x="303" y="98" type="qcurve" />
      <point x="304" y="172" type="line" />
      <point x="304" y="367" type="line" />
      <point x="302" y="366" />
      <point x="299" y="366" type="qcurve" />
      <point x="298" y="366" type="line" />
      <point x="288" y="366" />
      <point x="271" y="395" />
      <point x="271" y="423" />
      <point x="282" y="423" type="qcurve" />
      <point x="304" y="422" type="line" />
      <point x="304" y="572" type="line" />
      <point x="302" y="660" type="line" />
      <point x="302" y="669" />
      <point x="334" y="670" />
      <point x="365" y="657" />
      <point x="365" y="646" type="qcurve" />
      <point x="362" y="571" type="line" />
      <point x="362" y="422" type="line" />
      <point x="575" y="434" type="line" />
      <point x="594" y="435" />
      <point x="634" y="439" />
      <point x="644" y="440" type="qcurve" />
      <point x="647" y="440" type="line" />
      <point x="657" y="440" />
      <point x="667" y="421" type="qcurve" />
      <point x="667" y="572" type="line" />
      <point x="664" y="660" type="line" />
      <point x="664" y="669" />
      <point x="695" y="670" />
      <point x="726" y="657" />
      <point x="726" y="646" type="qcurve" />
      <point x="724" y="571" type="line" />
      <point x="724" y="172" type="line" />
      <point x="727" y="84" type="line" />
      <point x="727" y="76" />
      <point x="696" y="76" />
      <point x="665" y="89" />
    </contour>
    <contour>
      <point x="212" y="-83" type="qcurve" />
      <point x="204" y="-83" />
      <point x="159" y="-40" />
      <point x="100" y="41" />
      <point x="45" y="155" />
      <point x="9" y="295" />
      <point x="9" y="457" />
      <point x="45" y="598" />
      <point x="100" y="711" />
      <point x="159" y="792" />
      <point x="204" y="835" />
      <point x="212" y="835" type="qcurve" />
      <point x="226" y="835" />
      <point x="226" y="819" type="qcurve" />
      <point x="226" y="811" />
      <point x="221" y="806" type="qcurve" />
      <point x="125" y="692" />
      <point x="92" y="524" type="qcurve" />
      <point x="78" y="448" />
      <point x="78" y="303" />
      <point x="92" y="227" type="qcurve" />
      <point x="125" y="61" />
      <point x="221" y="-54" type="qcurve" />
      <point x="226" y="-59" />
      <point x="226" y="-68" type="qcurve" />
      <point x="226" y="-83" />
    </contour>
    <contour>
      <point x="811" y="-83" type="qcurve" />
      <point x="797" y="-83" />
      <point x="797" y="-68" type="qcurve" />
      <point x="797" y="-60" />
      <point x="802" y="-54" type="qcurve" />
      <point x="898" y="62" />
      <point x="930" y="227" type="qcurve" />
      <point x="945" y="303" />
      <point x="945" y="449" />
      <point x="930" y="524" type="qcurve" />
      <point x="898" y="692" />
      <point x="802" y="806" type="qcurve" />
      <point x="797" y="811" />
      <point x="797" y="819" type="qcurve" />
      <point x="797" y="834" />
      <point x="811" y="835" type="qcurve" />
      <point x="819" y="835" />
      <point x="842" y="813" type="qcurve" />
      <point x="901" y="758" />
      <point x="950" y="654" type="qcurve" />
      <point x="1013" y="523" />
      <point x="1014" y="229" />
      <point x="950" y="98" type="qcurve" />
      <point x="901" y="-7" />
      <point x="842" y="-61" type="qcurve" />
      <point x="819" y="-83" />
    </contour>
  </outline>
</glyph>
<glyph name="u1F118" format="2">
  <unicode hex="1F118" />
  <advance width="1024" />
  <outline>
    <contour>
      <point x="478" y="99" type="qcurve" />
      <point x="479" y="173" type="line" />
      <point x="479" y="572" type="line" />
      <point x="477" y="660" type="line" />
      <point x="477" y="669" />
      <point x="510" y="670" />
      <point x="543" y="657" />
      <point x="543" y="646" type="qcurve" />
      <point x="541" y="571" type="line" />
      <point x="541" y="172" type="line" />
      <point x="544" y="84" type="line" />
      <point x="544" y="76" />
      <point x="512" y="76" />
      <point x="478" y="89" />
    </contour>
    <contour>
      <point x="212" y="-83" type="qcurve" />
      <point x="204" y="-83" />
      <point x="159" y="-40" />
      <point x="100" y="41" />
      <point x="45" y="155" />
      <point x="9" y="295" />
      <point x="9" y="457" />
      <point x="45" y="598" />
      <point x="100" y="711" />
      <point x="159" y="792" />
      <point x="204" y="835" />
      <point x="212" y="835" type="qcurve" />
      <point x="226" y="835" />
      <point x="226" y="819" type="qcurve" />
      <point x="226" y="811" />
      <point x="221" y="806" type="qcurve" />
      <point x="125" y="692" />
      <point x="92" y="524" type="qcurve" />
      <point x="78" y="448" />
      <point x="78" y="303" />
      <point x="92" y="227" type="qcurve" />
      <point x="125" y="61" />
      <point x="221" y="-54" type="qcurve" />
      <point x="226" y="-59" />
      <point x="226" y="-68" type="qcurve" />
      <point x="226" y="-83" />
    </contour>
    <contour>
      <point x="811" y="-83" type="qcurve" />
      <point x="797" y="-83" />
      <point x="797" y="-68" type="qcurve" />
      <point x="797" y="-60" />
      <point x="802" y="-54" type="qcurve" />
      <point x="898" y="62" />
      <point x="930" y="227" type="qcurve" />
      <point x="945" y="303" />
      <point x="945" y="449" />
      <point x="930" y="524" type="qcurve" />
      <point x="898" y="692" />
      <point x="802" y="806" type="qcurve" />
      <point x="797" y="811" />
      <point x="797" y="819" type="qcurve" />
      <point x="797" y="834" />
      <point x="811" y="835" type="qcurve" />
      <point x="819" y="835" />
      <point x="842" y="813" type="qcurve" />
      <point x="901" y="758" />
      <point x="950" y="654" type="qcurve" />
      <point x="1013" y="523" />
      <point x="1014" y="229" />
      <point x="950" y="98" type="qcurve" />
      <point x="901" y="-7" />
      <point x="842" y="-61" type="qcurve" />
      <point x="819" y="-83" />
    </contour>
  </outline>
</glyph>
<glyph name="u1F119" format="2">
  <unicode hex="1F119" />
  <advance width="1024" />
  <outline>
    <contour>
      <point x="633" y="646" type="qcurve" />
      <point x="632" y="571" type="line" />
      <point x="632" y="231" type="line" />
      <point x="632" y="114" />
      <point x="557" y="84" type="qcurve" />
      <point x="524" y="70" />
      <point x="437" y="70" />
      <point x="344" y="126" />
      <point x="327" y="178" type="qcurve" />
      <point x="326" y="180" />
      <point x="326" y="201" />
      <point x="357" y="227" />
      <point x="379" y="227" />
      <point x="380" y="218" type="qcurve" />
      <point x="390" y="183" />
      <point x="402" y="166" type="qcurve" />
      <point x="432" y="125" />
      <point x="483" y="125" type="qcurve" />
      <point x="572" y="125" />
      <point x="572" y="233" type="qcurve" />
      <point x="572" y="572" type="line" />
      <point x="570" y="660" type="line" />
      <point x="570" y="669" />
      <point x="602" y="670" />
      <point x="633" y="657" />
    </contour>
    <contour>
      <point x="212" y="-83" type="qcurve" />
      <point x="204" y="-83" />
      <point x="159" y="-40" />
      <point x="100" y="41" />
      <point x="45" y="155" />
      <point x="9" y="295" />
      <point x="9" y="457" />
      <point x="45" y="598" />
      <point x="100" y="711" />
      <point x="159" y="792" />
      <point x="204" y="835" />
      <point x="212" y="835" type="qcurve" />
      <point x="226" y="835" />
      <point x="226" y="819" type="qcurve" />
      <point x="226" y="811" />
      <point x="221" y="806" type="qcurve" />
      <point x="125" y="692" />
      <point x="92" y="524" type="qcurve" />
      <point x="78" y="448" />
      <point x="78" y="303" />
      <point x="92" y="227" type="qcurve" />
      <point x="125" y="61" />
      <point x="221" y="-54" type="qcurve" />
      <point x="226" y="-59" />
      <point x="226" y="-68" type="qcurve" />
      <point x="226" y="-83" />
    </contour>
    <contour>
      <point x="811" y="-83" type="qcurve" />
      <point x="797" y="-83" />
      <point x="797" y="-68" type="qcurve" />
      <point x="797" y="-60" />
      <point x="802" y="-54" type="qcurve" />
      <point x="898" y="62" />
      <point x="930" y="227" type="qcurve" />
      <point x="945" y="303" />
      <point x="945" y="449" />
      <point x="930" y="524" type="qcurve" />
      <point x="898" y="692" />
      <point x="802" y="806" type="qcurve" />
      <point x="797" y="811" />
      <point x="797" y="819" type="qcurve" />
      <point x="797" y="834" />
      <point x="811" y="835" type="qcurve" />
      <point x="819" y="835" />
      <point x="842" y="813" type="qcurve" />
      <point x="901" y="758" />
      <point x="950" y="654" type="qcurve" />
      <point x="1013" y="523" />
      <point x="1014" y="229" />
      <point x="950" y="98" type="qcurve" />
      <point x="901" y="-7" />
      <point x="842" y="-61" type="qcurve" />
      <point x="819" y="-83" />
    </contour>
  </outline>
</glyph>
<glyph name="u1F11A" format="2">
  <unicode hex="1F11A" />
  <advance width="1024" />
  <outline>
    <contour>
      <point x="335" y="98" type="qcurve" />
      <point x="337" y="177" type="line" />
      <point x="337" y="572" type="line" />
      <point x="335" y="660" type="line" />
      <point x="335" y="669" />
      <point x="367" y="670" />
      <point x="396" y="657" />
      <point x="396" y="646" type="qcurve" />
      <point x="395" y="571" type="line" />
      <point x="395" y="426" type="line" />
      <point x="488" y="498" />
      <point x="610" y="614" type="qcurve" />
      <point x="643" y="645" />
      <point x="658" y="664" type="qcurve" />
      <point x="663" y="669" />
      <point x="687" y="669" />
      <point x="722" y="649" />
      <point x="722" y="639" type="qcurve" />
      <point x="722" y="636" />
      <point x="719" y="633" type="qcurve" />
      <point x="681" y="603" />
      <point x="588" y="517" />
      <point x="462" y="415" type="qcurve" />
      <point x="525" y="341" />
      <point x="680" y="182" />
      <point x="721" y="140" />
      <point x="765" y="104" />
      <point x="765" y="100" type="qcurve" />
      <point x="765" y="93" />
      <point x="731" y="77" />
      <point x="693" y="77" />
      <point x="686" y="87" type="qcurve" />
      <point x="677" y="103" />
      <point x="629" y="153" />
      <point x="465" y="329" />
      <point x="420" y="380" type="qcurve" />
      <point x="395" y="360" type="line" />
      <point x="395" y="176" type="line" />
      <point x="397" y="83" type="line" />
      <point x="397" y="75" />
      <point x="367" y="75" />
      <point x="335" y="88" />
    </contour>
    <contour>
      <point x="212" y="-83" type="qcurve" />
      <point x="204" y="-83" />
      <point x="159" y="-40" />
      <point x="100" y="41" />
      <point x="45" y="155" />
      <point x="9" y="295" />
      <point x="9" y="457" />
      <point x="45" y="598" />
      <point x="100" y="711" />
      <point x="159" y="792" />
      <point x="204" y="835" />
      <point x="212" y="835" type="qcurve" />
      <point x="226" y="835" />
      <point x="226" y="819" type="qcurve" />
      <point x="226" y="811" />
      <point x="221" y="806" type="qcurve" />
      <point x="125" y="692" />
      <point x="92" y="524" type="qcurve" />
      <point x="78" y="448" />
      <point x="78" y="303" />
      <point x="92" y="227" type="qcurve" />
      <point x="125" y="61" />
      <point x="221" y="-54" type="qcurve" />
      <point x="226" y="-59" />
      <point x="226" y="-68" type="qcurve" />
      <point x="226" y="-83" />
    </contour>
    <contour>
      <point x="811" y="-83" type="qcurve" />
      <point x="797" y="-83" />
      <point x="797" y="-68" type="qcurve" />
      <point x="797" y="-60" />
      <point x="802" y="-54" type="qcurve" />
      <point x="898" y="62" />
      <point x="930" y="227" type="qcurve" />
      <point x="945" y="303" />
      <point x="945" y="449" />
      <point x="930" y="524" type="qcurve" />
      <point x="898" y="692" />
      <point x="802" y="806" type="qcurve" />
      <point x="797" y="811" />
      <point x="797" y="819" type="qcurve" />
      <point x="797" y="834" />
      <point x="811" y="835" type="qcurve" />
      <point x="819" y="835" />
      <point x="842" y="813" type="qcurve" />
      <point x="901" y="758" />
      <point x="950" y="654" type="qcurve" />
      <point x="1013" y="523" />
      <point x="1014" y="229" />
      <point x="950" y="98" type="qcurve" />
      <point x="901" y="-7" />
      <point x="842" y="-61" type="qcurve" />
      <point x="819" y="-83" />
    </contour>
  </outline>
</glyph>
<glyph name="u1F11B" format="2">
  <unicode hex="1F11B" />
  <advance width="1024" />
  <outline>
    <contour>
      <point x="420" y="133" type="line" />
      <point x="522" y="137" />
      <point x="578" y="137" type="qcurve" />
      <point x="653" y="137" type="line" />
      <point x="671" y="137" />
      <point x="683" y="138" type="qcurve" />
      <point x="684" y="138" type="line" />
      <point x="694" y="138" />
      <point x="710" y="108" />
      <point x="710" y="80" />
      <point x="701" y="80" type="qcurve" />
      <point x="700" y="80" type="line" />
      <point x="671" y="85" />
      <point x="614" y="85" type="qcurve" />
      <point x="578" y="85" type="line" />
      <point x="423" y="85" />
      <point x="390" y="77" type="qcurve" />
      <point x="388" y="77" type="line" />
      <point x="378" y="77" />
      <point x="354" y="105" />
      <point x="354" y="120" />
      <point x="360" y="132" />
      <point x="360" y="142" type="qcurve" />
      <point x="360" y="572" type="line" />
      <point x="357" y="660" type="line" />
      <point x="357" y="669" />
      <point x="390" y="670" />
      <point x="422" y="657" />
      <point x="422" y="646" type="qcurve" />
      <point x="420" y="571" type="line" />
    </contour>
    <contour>
      <point x="212" y="-83" type="qcurve" />
      <point x="204" y="-83" />
      <point x="159" y="-40" />
      <point x="100" y="41" />
      <point x="45" y="155" />
      <point x="9" y="295" />
      <point x="9" y="457" />
      <point x="45" y="598" />
      <point x="100" y="711" />
      <point x="159" y="792" />
      <point x="204" y="835" />
      <point x="212" y="835" type="qcurve" />
      <point x="226" y="835" />
      <point x="226" y="819" type="qcurve" />
      <point x="226" y="811" />
      <point x="221" y="806" type="qcurve" />
      <point x="125" y="692" />
      <point x="92" y="524" type="qcurve" />
      <point x="78" y="448" />
      <point x="78" y="303" />
      <point x="92" y="227" type="qcurve" />
      <point x="125" y="61" />
      <point x="221" y="-54" type="qcurve" />
      <point x="226" y="-59" />
      <point x="226" y="-68" type="qcurve" />
      <point x="226" y="-83" />
    </contour>
    <contour>
      <point x="811" y="-83" type="qcurve" />
      <point x="797" y="-83" />
      <point x="797" y="-68" type="qcurve" />
      <point x="797" y="-60" />
      <point x="802" y="-54" type="qcurve" />
      <point x="898" y="62" />
      <point x="930" y="227" type="qcurve" />
      <point x="945" y="303" />
      <point x="945" y="449" />
      <point x="930" y="524" type="qcurve" />
      <point x="898" y="692" />
      <point x="802" y="806" type="qcurve" />
      <point x="797" y="811" />
      <point x="797" y="819" type="qcurve" />
      <point x="797" y="834" />
      <point x="811" y="835" type="qcurve" />
      <point x="819" y="835" />
      <point x="842" y="813" type="qcurve" />
      <point x="901" y="758" />
      <point x="950" y="654" type="qcurve" />
      <point x="1013" y="523" />
      <point x="1014" y="229" />
      <point x="950" y="98" type="qcurve" />
      <point x="901" y="-7" />
      <point x="842" y="-61" type="qcurve" />
      <point x="819" y="-83" />
    </contour>
  </outline>
</glyph>
<glyph name="u1F11C" format="2">
  <unicode hex="1F11C" />
  <advance width="1024" />
  <outline>
    <contour>
      <point x="763" y="646" type="qcurve" />
      <point x="759" y="609" type="line" />
      <point x="759" y="605" type="line" />
      <point x="801" y="224" />
      <point x="824" y="115" />
      <point x="828" y="100" type="qcurve" />
      <point x="828" y="97" type="line" />
      <point x="828" y="89" />
      <point x="803" y="79" />
      <point x="791" y="79" type="qcurve" />
      <point x="761" y="79" />
      <point x="759" y="93" type="qcurve" />
      <point x="758" y="110" />
      <point x="757" y="136" />
      <point x="751" y="191" />
      <point x="739" y="297" />
      <point x="727" y="416" />
      <point x="715" y="535" />
      <point x="710" y="585" type="qcurve" />
      <point x="602" y="370" />
      <point x="545" y="221" type="qcurve" />
      <point x="535" y="192" />
      <point x="534" y="177" />
      <point x="505" y="163" />
      <point x="471" y="163" />
      <point x="466" y="175" type="qcurve" />
      <point x="456" y="210" />
      <point x="446" y="231" type="qcurve" />
      <point x="372" y="392" />
      <point x="306" y="577" type="qcurve" />
      <point x="297" y="447" />
      <point x="258" y="135" />
      <point x="256" y="94" type="qcurve" />
      <point x="254" y="79" />
      <point x="209" y="79" type="qcurve" />
      <point x="187" y="79" />
      <point x="187" y="90" type="qcurve" />
      <point x="187" y="92" type="line" />
      <point x="200" y="131" />
      <point x="223" y="312" />
      <point x="257" y="602" type="qcurve" />
      <point x="258" y="612" type="line" />
      <point x="256" y="635" type="line" />
      <point x="257" y="642" type="line" />
      <point x="259" y="651" />
      <point x="291" y="667" />
      <point x="326" y="667" />
      <point x="330" y="653" type="qcurve" />
      <point x="340" y="624" />
      <point x="446" y="355" />
      <point x="498" y="239" type="qcurve" />
      <point x="595" y="476" />
      <point x="682" y="653" />
      <point x="692" y="675" />
      <point x="716" y="675" />
      <point x="729" y="670" type="qcurve" />
      <point x="763" y="658" />
    </contour>
    <contour>
      <point x="212" y="-83" type="qcurve" />
      <point x="204" y="-83" />
      <point x="159" y="-40" />
      <point x="100" y="41" />
      <point x="45" y="155" />
      <point x="9" y="295" />
      <point x="9" y="457" />
      <point x="45" y="598" />
      <point x="100" y="711" />
      <point x="159" y="792" />
      <point x="204" y="835" />
      <point x="212" y="835" type="qcurve" />
      <point x="226" y="835" />
      <point x="226" y="819" type="qcurve" />
      <point x="226" y="811" />
      <point x="221" y="806" type="qcurve" />
      <point x="125" y="692" />
      <point x="92" y="524" type="qcurve" />
      <point x="78" y="448" />
      <point x="78" y="303" />
      <point x="92" y="227" type="qcurve" />
      <point x="125" y="61" />
      <point x="221" y="-54" type="qcurve" />
      <point x="226" y="-59" />
      <point x="226" y="-68" type="qcurve" />
      <point x="226" y="-83" />
    </contour>
    <contour>
      <point x="811" y="-83" type="qcurve" />
      <point x="797" y="-83" />
      <point x="797" y="-68" type="qcurve" />
      <point x="797" y="-60" />
      <point x="802" y="-54" type="qcurve" />
      <point x="898" y="62" />
      <point x="930" y="227" type="qcurve" />
      <point x="945" y="303" />
      <point x="945" y="449" />
      <point x="930" y="524" type="qcurve" />
      <point x="898" y="692" />
      <point x="802" y="806" type="qcurve" />
      <point x="797" y="811" />
      <point x="797" y="819" type="qcurve" />
      <point x="797" y="834" />
      <point x="811" y="835" type="qcurve" />
      <point x="819" y="835" />
      <point x="842" y="813" type="qcurve" />
      <point x="901" y="758" />
      <point x="950" y="654" type="qcurve" />
      <point x="1013" y="523" />
      <point x="1014" y="229" />
      <point x="950" y="98" type="qcurve" />
      <point x="901" y="-7" />
      <point x="842" y="-61" type="qcurve" />
      <point x="819" y="-83" />
    </contour>
  </outline>
</glyph>
<glyph name="u1F11E" format="2">
  <unicode hex="1F11E" />
  <advance width="1024" />
  <outline>
    <contour>
      <point x="385" y="156" type="qcurve" />
      <point x="428" y="122" />
      <point x="578" y="122" />
      <point x="674" y="199" />
      <point x="717" y="323" />
      <point x="717" y="450" />
      <point x="675" y="556" />
      <point x="592" y="626" />
      <point x="529" y="626" type="qcurve" />
      <point x="493" y="626" />
      <point x="414" y="593" />
      <point x="379" y="560" type="qcurve" />
      <point x="300" y="486" />
      <point x="300" y="366" type="qcurve" />
      <point x="300" y="221" />
    </contour>
    <contour>
      <point x="383" y="620" type="qcurve" />
      <point x="445" y="676" />
      <point x="609" y="676" />
      <point x="717" y="600" />
      <point x="775" y="469" />
      <point x="775" y="300" />
      <point x="717" y="156" />
      <point x="596" y="70" />
      <point x="413" y="70" />
      <point x="355" y="109" type="qcurve" />
      <point x="242" y="184" />
      <point x="243" y="364" type="qcurve" />
      <point x="243" y="466" />
      <point x="290" y="553" type="qcurve" />
      <point x="309" y="590" />
      <point x="349" y="630" />
      <point x="375" y="630" />
    </contour>
    <contour>
      <point x="212" y="-83" type="qcurve" />
      <point x="204" y="-83" />
      <point x="159" y="-40" />
      <point x="100" y="41" />
      <point x="45" y="155" />
      <point x="9" y="295" />
      <point x="9" y="457" />
      <point x="45" y="598" />
      <point x="100" y="711" />
      <point x="159" y="792" />
      <point x="204" y="835" />
      <point x="212" y="835" type="qcurve" />
      <point x="226" y="835" />
      <point x="226" y="819" type="qcurve" />
      <point x="226" y="811" />
      <point x="221" y="806" type="qcurve" />
      <point x="125" y="692" />
      <point x="92" y="524" type="qcurve" />
      <point x="78" y="448" />
      <point x="78" y="303" />
      <point x="92" y="227" type="qcurve" />
      <point x="125" y="61" />
      <point x="221" y="-54" type="qcurve" />
      <point x="226" y="-59" />
      <point x="226" y="-68" type="qcurve" />
      <point x="226" y="-83" />
    </contour>
    <contour>
      <point x="811" y="-83" type="qcurve" />
      <point x="797" y="-83" />
      <point x="797" y="-68" type="qcurve" />
      <point x="797" y="-60" />
      <point x="802" y="-54" type="qcurve" />
      <point x="898" y="62" />
      <point x="930" y="227" type="qcurve" />
      <point x="945" y="303" />
      <point x="945" y="449" />
      <point x="930" y="524" type="qcurve" />
      <point x="898" y="692" />
      <point x="802" y="806" type="qcurve" />
      <point x="797" y="811" />
      <point x="797" y="819" type="qcurve" />
      <point x="797" y="834" />
      <point x="811" y="835" type="qcurve" />
      <point x="819" y="835" />
      <point x="842" y="813" type="qcurve" />
      <point x="901" y="758" />
      <point x="950" y="654" type="qcurve" />
      <point x="1013" y="523" />
      <point x="1014" y="229" />
      <point x="950" y="98" type="qcurve" />
      <point x="901" y="-7" />
      <point x="842" y="-61" type="qcurve" />
      <point x="819" y="-83" />
    </contour>
  </outline>
</glyph>
<glyph name="u1F11F" format="2">
  <unicode hex="1F11F" />
  <advance width="1024" />
  <outline>
    <contour>
      <point x="680" y="532" type="qcurve" />
      <point x="680" y="621" />
      <point x="527" y="622" type="qcurve" />
      <point x="465" y="622" />
      <point x="410" y="605" type="qcurve" />
      <point x="410" y="384" type="line" />
      <point x="416" y="388" />
      <point x="420" y="388" type="qcurve" />
      <point x="575" y="397" />
      <point x="643" y="456" type="qcurve" />
      <point x="680" y="486" />
    </contour>
    <contour>
      <point x="349" y="98" type="qcurve" />
      <point x="351" y="180" type="line" />
      <point x="351" y="597" type="line" />
      <point x="350" y="597" type="line" />
      <point x="338" y="597" />
      <point x="313" y="627" />
      <point x="313" y="645" />
      <point x="321" y="646" type="qcurve" />
      <point x="444" y="669" />
      <point x="500" y="674" />
      <point x="528" y="674" type="qcurve" />
      <point x="638" y="674" />
      <point x="740" y="601" />
      <point x="740" y="483" />
      <point x="717" y="449" type="qcurve" />
      <point x="674" y="386" />
      <point x="574" y="364" type="qcurve" />
      <point x="508" y="350" />
      <point x="442" y="349" type="qcurve" />
      <point x="429" y="349" type="line" />
      <point x="421" y="349" />
      <point x="410" y="353" type="qcurve" />
      <point x="410" y="179" type="line" />
      <point x="412" y="83" type="line" />
      <point x="412" y="75" />
      <point x="381" y="75" />
      <point x="349" y="88" />
    </contour>
    <contour>
      <point x="212" y="-83" type="qcurve" />
      <point x="204" y="-83" />
      <point x="159" y="-40" />
      <point x="100" y="41" />
      <point x="45" y="155" />
      <point x="9" y="295" />
      <point x="9" y="457" />
      <point x="45" y="598" />
      <point x="100" y="711" />
      <point x="159" y="792" />
      <point x="204" y="835" />
      <point x="212" y="835" type="qcurve" />
      <point x="226" y="835" />
      <point x="226" y="819" type="qcurve" />
      <point x="226" y="811" />
      <point x="221" y="806" type="qcurve" />
      <point x="125" y="692" />
      <point x="92" y="524" type="qcurve" />
      <point x="78" y="448" />
      <point x="78" y="303" />
      <point x="92" y="227" type="qcurve" />
      <point x="125" y="61" />
      <point x="221" y="-54" type="qcurve" />
      <point x="226" y="-59" />
      <point x="226" y="-68" type="qcurve" />
      <point x="226" y="-83" />
    </contour>
    <contour>
      <point x="811" y="-83" type="qcurve" />
      <point x="797" y="-83" />
      <point x="797" y="-68" type="qcurve" />
      <point x="797" y="-60" />
      <point x="802" y="-54" type="qcurve" />
      <point x="898" y="62" />
      <point x="930" y="227" type="qcurve" />
      <point x="945" y="303" />
      <point x="945" y="449" />
      <point x="930" y="524" type="qcurve" />
      <point x="898" y="692" />
      <point x="802" y="806" type="qcurve" />
      <point x="797" y="811" />
      <point x="797" y="819" type="qcurve" />
      <point x="797" y="834" />
      <point x="811" y="835" type="qcurve" />
      <point x="819" y="835" />
      <point x="842" y="813" type="qcurve" />
      <point x="901" y="758" />
      <point x="950" y="654" type="qcurve" />
      <point x="1013" y="523" />
      <point x="1014" y="229" />
      <point x="950" y="98" type="qcurve" />
      <point x="901" y="-7" />
      <point x="842" y="-61" type="qcurve" />
      <point x="819" y="-83" />
    </contour>
  </outline>
</glyph>
<glyph name="u1F120" format="2">
  <unicode hex="1F120" />
  <advance width="1024" />
  <outline>
    <contour>
      <point x="621" y="157" type="qcurve" />
      <point x="714" y="220" />
      <point x="714" y="392" type="qcurve" />
      <point x="714" y="449" />
      <point x="674" y="557" />
      <point x="592" y="627" />
      <point x="527" y="627" type="qcurve" />
      <point x="489" y="627" />
      <point x="409" y="591" />
      <point x="375" y="557" type="qcurve" />
      <point x="299" y="483" />
      <point x="299" y="366" type="qcurve" />
      <point x="299" y="220" />
      <point x="382" y="156" type="qcurve" />
      <point x="425" y="122" />
      <point x="494" y="122" type="qcurve" />
      <point x="531" y="122" />
      <point x="571" y="132" type="qcurve" />
      <point x="501" y="197" type="line" />
      <point x="488" y="210" />
      <point x="474" y="214" />
      <point x="471" y="220" type="qcurve" />
      <point x="471" y="222" type="line" />
      <point x="471" y="234" />
      <point x="500" y="247" type="qcurve" />
      <point x="512" y="252" />
      <point x="519" y="252" type="qcurve" />
      <point x="521" y="252" type="line" />
      <point x="535" y="250" />
      <point x="545" y="237" />
      <point x="558" y="220" />
      <point x="598" y="181" />
    </contour>
    <contour>
      <point x="382" y="620" type="qcurve" />
      <point x="444" y="676" />
      <point x="606" y="676" />
      <point x="715" y="600" />
      <point x="773" y="469" />
      <point x="773" y="302" />
      <point x="718" y="160" />
      <point x="659" y="118" type="qcurve" />
      <point x="706" y="71" />
      <point x="778" y="43" />
      <point x="778" y="33" type="qcurve" />
      <point x="778" y="25" />
      <point x="721" y="25" />
      <point x="680" y="39" />
      <point x="642" y="69" />
      <point x="615" y="91" type="qcurve" />
      <point x="566" y="69" />
      <point x="412" y="70" />
      <point x="297" y="146" />
      <point x="241" y="280" />
      <point x="241" y="420" />
      <point x="268" y="517" />
      <point x="307" y="590" />
      <point x="347" y="630" />
      <point x="372" y="630" />
    </contour>
    <contour>
      <point x="212" y="-83" type="qcurve" />
      <point x="204" y="-83" />
      <point x="159" y="-40" />
      <point x="100" y="41" />
      <point x="45" y="155" />
      <point x="9" y="295" />
      <point x="9" y="457" />
      <point x="45" y="598" />
      <point x="100" y="711" />
      <point x="159" y="792" />
      <point x="204" y="835" />
      <point x="212" y="835" type="qcurve" />
      <point x="226" y="835" />
      <point x="226" y="819" type="qcurve" />
      <point x="226" y="811" />
      <point x="221" y="806" type="qcurve" />
      <point x="125" y="692" />
      <point x="92" y="524" type="qcurve" />
      <point x="78" y="448" />
      <point x="78" y="303" />
      <point x="92" y="227" type="qcurve" />
      <point x="125" y="61" />
      <point x="221" y="-54" type="qcurve" />
      <point x="226" y="-59" />
      <point x="226" y="-68" type="qcurve" />
      <point x="226" y="-83" />
    </contour>
    <contour>
      <point x="811" y="-83" type="qcurve" />
      <point x="797" y="-83" />
      <point x="797" y="-68" type="qcurve" />
      <point x="797" y="-60" />
      <point x="802" y="-54" type="qcurve" />
      <point x="898" y="62" />
      <point x="930" y="227" type="qcurve" />
      <point x="945" y="303" />
      <point x="945" y="449" />
      <point x="930" y="524" type="qcurve" />
      <point x="898" y="692" />
      <point x="802" y="806" type="qcurve" />
      <point x="797" y="811" />
      <point x="797" y="819" type="qcurve" />
      <point x="797" y="834" />
      <point x="811" y="835" type="qcurve" />
      <point x="819" y="835" />
      <point x="842" y="813" type="qcurve" />
      <point x="901" y="758" />
      <point x="950" y="654" type="qcurve" />
      <point x="1013" y="523" />
      <point x="1014" y="229" />
      <point x="950" y="98" type="qcurve" />
      <point x="901" y="-7" />
      <point x="842" y="-61" type="qcurve" />
      <point x="819" y="-83" />
    </contour>
  </outline>
</glyph>
<glyph name="u1F121" format="2">
  <unicode hex="1F121" />
  <advance width="1024" />
  <outline>
    <contour>
      <point x="648" y="571" />
      <point x="579" y="623" />
      <point x="434" y="623" />
      <point x="391" y="606" type="qcurve" />
      <point x="391" y="391" type="line" />
      <point x="402" y="405" />
      <point x="413" y="406" type="qcurve" />
      <point x="424" y="406" type="line" />
      <point x="543" y="406" />
      <point x="599" y="449" type="qcurve" />
      <point x="638" y="478" />
      <point x="645" y="516" type="qcurve" />
      <point x="648" y="528" />
      <point x="648" y="529" type="qcurve" />
    </contour>
    <contour>
      <point x="333" y="98" type="qcurve" />
      <point x="335" y="180" type="line" />
      <point x="335" y="595" type="line" />
      <point x="334" y="595" type="line" />
      <point x="322" y="595" />
      <point x="295" y="628" />
      <point x="295" y="646" />
      <point x="302" y="646" type="qcurve" />
      <point x="429" y="669" />
      <point x="496" y="672" />
      <point x="519" y="672" type="qcurve" />
      <point x="587" y="672" />
      <point x="629" y="651" type="qcurve" />
      <point x="707" y="612" />
      <point x="707" y="532" type="qcurve" />
      <point x="707" y="488" />
      <point x="682" y="455" type="qcurve" />
      <point x="626" y="377" />
      <point x="511" y="369" type="qcurve" />
      <point x="492" y="367" />
      <point x="472" y="366" type="qcurve" />
      <point x="498" y="340" />
      <point x="532" y="301" type="qcurve" />
      <point x="686" y="129" />
      <point x="741" y="104" type="qcurve" />
      <point x="777" y="92" />
      <point x="777" y="80" type="qcurve" />
      <point x="777" y="73" />
      <point x="743" y="73" type="qcurve" />
      <point x="693" y="73" />
      <point x="642" y="115" type="qcurve" />
      <point x="611" y="140" />
      <point x="454" y="314" />
      <point x="416" y="352" />
      <point x="391" y="361" type="qcurve" />
      <point x="391" y="179" type="line" />
      <point x="393" y="83" type="line" />
      <point x="393" y="75" />
      <point x="364" y="75" />
      <point x="333" y="88" />
    </contour>
    <contour>
      <point x="212" y="-83" type="qcurve" />
      <point x="204" y="-83" />
      <point x="159" y="-40" />
      <point x="100" y="41" />
      <point x="45" y="155" />
      <point x="9" y="295" />
      <point x="9" y="457" />
      <point x="45" y="598" />
      <point x="100" y="711" />
      <point x="159" y="792" />
      <point x="204" y="835" />
      <point x="212" y="835" type="qcurve" />
      <point x="226" y="835" />
      <point x="226" y="819" type="qcurve" />
      <point x="226" y="811" />
      <point x="221" y="806" type="qcurve" />
      <point x="125" y="692" />
      <point x="92" y="524" type="qcurve" />
      <point x="78" y="448" />
      <point x="78" y="303" />
      <point x="92" y="227" type="qcurve" />
      <point x="125" y="61" />
      <point x="221" y="-54" type="qcurve" />
      <point x="226" y="-59" />
      <point x="226" y="-68" type="qcurve" />
      <point x="226" y="-83" />
    </contour>
    <contour>
      <point x="811" y="-83" type="qcurve" />
      <point x="797" y="-83" />
      <point x="797" y="-68" type="qcurve" />
      <point x="797" y="-60" />
      <point x="802" y="-54" type="qcurve" />
      <point x="898" y="62" />
      <point x="930" y="227" type="qcurve" />
      <point x="945" y="303" />
      <point x="945" y="449" />
      <point x="930" y="524" type="qcurve" />
      <point x="898" y="692" />
      <point x="802" y="806" type="qcurve" />
      <point x="797" y="811" />
      <point x="797" y="819" type="qcurve" />
      <point x="797" y="834" />
      <point x="811" y="835" type="qcurve" />
      <point x="819" y="835" />
      <point x="842" y="813" type="qcurve" />
      <point x="901" y="758" />
      <point x="950" y="654" type="qcurve" />
      <point x="1013" y="523" />
      <point x="1014" y="229" />
      <point x="950" y="98" type="qcurve" />
      <point x="901" y="-7" />
      <point x="842" y="-61" type="qcurve" />
      <point x="819" y="-83" />
    </contour>
  </outline>
</glyph>
<glyph name="u1F122" format="2">
  <unicode hex="1F122" />
  <advance width="1024" />
  <outline>
    <contour>
      <point x="458" y="391" type="line" />
      <point x="326" y="422" />
      <point x="326" y="512" type="qcurve" />
      <point x="326" y="605" />
      <point x="422" y="653" type="qcurve" />
      <point x="467" y="676" />
      <point x="571" y="676" />
      <point x="650" y="647" />
      <point x="698" y="609" />
      <point x="698" y="577" />
      <point x="685" y="550" />
      <point x="671" y="550" />
      <point x="666" y="555" type="qcurve" />
      <point x="655" y="565" type="line" />
      <point x="638" y="587" />
      <point x="562" y="624" />
      <point x="486" y="624" />
      <point x="422" y="593" />
      <point x="384" y="546" />
      <point x="384" y="490" />
      <point x="428" y="453" />
      <point x="479" y="440" type="qcurve" />
      <point x="570" y="418" type="line" />
      <point x="728" y="376" />
      <point x="728" y="244" type="qcurve" />
      <point x="728" y="196" />
      <point x="702" y="156" type="qcurve" />
      <point x="647" y="70" />
      <point x="382" y="70" />
      <point x="302" y="160" type="qcurve" />
      <point x="298" y="164" />
      <point x="298" y="187" />
      <point x="321" y="216" />
      <point x="337" y="216" />
      <point x="340" y="210" type="qcurve" />
      <point x="387" y="138" />
      <point x="463" y="127" type="qcurve" />
      <point x="494" y="122" />
      <point x="554" y="122" />
      <point x="625" y="153" />
      <point x="669" y="205" />
      <point x="669" y="237" type="qcurve" />
      <point x="669" y="290" />
      <point x="611" y="350" />
      <point x="554" y="366" type="qcurve" />
    </contour>
    <contour>
      <point x="212" y="-83" type="qcurve" />
      <point x="204" y="-83" />
      <point x="159" y="-40" />
      <point x="100" y="41" />
      <point x="45" y="155" />
      <point x="9" y="295" />
      <point x="9" y="457" />
      <point x="45" y="598" />
      <point x="100" y="711" />
      <point x="159" y="792" />
      <point x="204" y="835" />
      <point x="212" y="835" type="qcurve" />
      <point x="226" y="835" />
      <point x="226" y="819" type="qcurve" />
      <point x="226" y="811" />
      <point x="221" y="806" type="qcurve" />
      <point x="125" y="692" />
      <point x="92" y="524" type="qcurve" />
      <point x="78" y="448" />
      <point x="78" y="303" />
      <point x="92" y="227" type="qcurve" />
      <point x="125" y="61" />
      <point x="221" y="-54" type="qcurve" />
      <point x="226" y="-59" />
      <point x="226" y="-68" type="qcurve" />
      <point x="226" y="-83" />
    </contour>
    <contour>
      <point x="811" y="-83" type="qcurve" />
      <point x="797" y="-83" />
      <point x="797" y="-68" type="qcurve" />
      <point x="797" y="-60" />
      <point x="802" y="-54" type="qcurve" />
      <point x="898" y="62" />
      <point x="930" y="227" type="qcurve" />
      <point x="945" y="303" />
      <point x="945" y="449" />
      <point x="930" y="524" type="qcurve" />
      <point x="898" y="692" />
      <point x="802" y="806" type="qcurve" />
      <point x="797" y="811" />
      <point x="797" y="819" type="qcurve" />
      <point x="797" y="834" />
      <point x="811" y="835" type="qcurve" />
      <point x="819" y="835" />
      <point x="842" y="813" type="qcurve" />
      <point x="901" y="758" />
      <point x="950" y="654" type="qcurve" />
      <point x="1013" y="523" />
      <point x="1014" y="229" />
      <point x="950" y="98" type="qcurve" />
      <point x="901" y="-7" />
      <point x="842" y="-61" type="qcurve" />
      <point x="819" y="-83" />
    </contour>
  </outline>
</glyph>
<glyph name="u1F123" format="2">
  <unicode hex="1F123" />
  <advance width="1024" />
  <outline>
    <contour>
      <point x="482" y="99" type="qcurve" />
      <point x="483" y="173" type="line" />
      <point x="484" y="608" type="line" />
      <point x="380" y="602" type="line" />
      <point x="360" y="601" />
      <point x="319" y="596" />
      <point x="311" y="595" type="qcurve" />
      <point x="310" y="595" type="line" />
      <point x="300" y="595" />
      <point x="284" y="625" />
      <point x="284" y="652" />
      <point x="294" y="652" type="qcurve" />
      <point x="358" y="651" type="line" />
      <point x="379" y="651" type="line" />
      <point x="646" y="667" type="line" />
      <point x="665" y="668" />
      <point x="705" y="672" />
      <point x="715" y="673" type="qcurve" />
      <point x="717" y="673" type="line" />
      <point x="728" y="673" />
      <point x="742" y="644" />
      <point x="742" y="615" />
      <point x="732" y="615" type="qcurve" />
      <point x="667" y="618" type="line" />
      <point x="543" y="611" type="line" />
      <point x="544" y="172" type="line" />
      <point x="546" y="84" type="line" />
      <point x="546" y="75" />
      <point x="514" y="75" />
      <point x="482" y="88" />
    </contour>
    <contour>
      <point x="212" y="-83" type="qcurve" />
      <point x="204" y="-83" />
      <point x="159" y="-40" />
      <point x="100" y="41" />
      <point x="45" y="155" />
      <point x="9" y="295" />
      <point x="9" y="457" />
      <point x="45" y="598" />
      <point x="100" y="711" />
      <point x="159" y="792" />
      <point x="204" y="835" />
      <point x="212" y="835" type="qcurve" />
      <point x="226" y="835" />
      <point x="226" y="819" type="qcurve" />
      <point x="226" y="811" />
      <point x="221" y="806" type="qcurve" />
      <point x="125" y="692" />
      <point x="92" y="524" type="qcurve" />
      <point x="78" y="448" />
      <point x="78" y="303" />
      <point x="92" y="227" type="qcurve" />
      <point x="125" y="61" />
      <point x="221" y="-54" type="qcurve" />
      <point x="226" y="-59" />
      <point x="226" y="-68" type="qcurve" />
      <point x="226" y="-83" />
    </contour>
    <contour>
      <point x="811" y="-83" type="qcurve" />
      <point x="797" y="-83" />
      <point x="797" y="-68" type="qcurve" />
      <point x="797" y="-60" />
      <point x="802" y="-54" type="qcurve" />
      <point x="898" y="62" />
      <point x="930" y="227" type="qcurve" />
      <point x="945" y="303" />
      <point x="945" y="449" />
      <point x="930" y="524" type="qcurve" />
      <point x="898" y="692" />
      <point x="802" y="806" type="qcurve" />
      <point x="797" y="811" />
      <point x="797" y="819" type="qcurve" />
      <point x="797" y="834" />
      <point x="811" y="835" type="qcurve" />
      <point x="819" y="835" />
      <point x="842" y="813" type="qcurve" />
      <point x="901" y="758" />
      <point x="950" y="654" type="qcurve" />
      <point x="1013" y="523" />
      <point x="1014" y="229" />
      <point x="950" y="98" type="qcurve" />
      <point x="901" y="-7" />
      <point x="842" y="-61" type="qcurve" />
      <point x="819" y="-83" />
    </contour>
  </outline>
</glyph>
<glyph name="u1F124" format="2">
  <unicode hex="1F124" />
  <advance width="1024" />
  <outline>
    <contour>
      <point x="368" y="648" type="qcurve" />
      <point x="366" y="568" type="line" />
      <point x="366" y="258" type="line" />
      <point x="366" y="183" />
      <point x="436" y="122" />
      <point x="549" y="122" />
      <point x="620" y="164" />
      <point x="660" y="238" />
      <point x="660" y="285" type="qcurve" />
      <point x="660" y="578" type="line" />
      <point x="658" y="663" type="line" />
      <point x="658" y="672" />
      <point x="692" y="672" />
      <point x="722" y="660" />
      <point x="722" y="650" type="qcurve" />
      <point x="720" y="577" type="line" />
      <point x="720" y="274" type="line" />
      <point x="720" y="213" />
      <point x="666" y="121" />
      <point x="567" y="70" />
      <point x="502" y="70" type="qcurve" />
      <point x="403" y="70" />
      <point x="306" y="162" />
      <point x="306" y="249" type="qcurve" />
      <point x="306" y="570" type="line" />
      <point x="304" y="660" type="line" />
      <point x="304" y="669" />
      <point x="322" y="670" type="qcurve" />
      <point x="368" y="670" />
    </contour>
    <contour>
      <point x="212" y="-83" type="qcurve" />
      <point x="204" y="-83" />
      <point x="159" y="-40" />
      <point x="100" y="41" />
      <point x="45" y="155" />
      <point x="9" y="295" />
      <point x="9" y="457" />
      <point x="45" y="598" />
      <point x="100" y="711" />
      <point x="159" y="792" />
      <point x="204" y="835" />
      <point x="212" y="835" type="qcurve" />
      <point x="226" y="835" />
      <point x="226" y="819" type="qcurve" />
      <point x="226" y="811" />
      <point x="221" y="806" type="qcurve" />
      <point x="125" y="692" />
      <point x="92" y="524" type="qcurve" />
      <point x="78" y="448" />
      <point x="78" y="303" />
      <point x="92" y="227" type="qcurve" />
      <point x="125" y="61" />
      <point x="221" y="-54" type="qcurve" />
      <point x="226" y="-59" />
      <point x="226" y="-68" type="qcurve" />
      <point x="226" y="-83" />
    </contour>
    <contour>
      <point x="811" y="-83" type="qcurve" />
      <point x="797" y="-83" />
      <point x="797" y="-68" type="qcurve" />
      <point x="797" y="-60" />
      <point x="802" y="-54" type="qcurve" />
      <point x="898" y="62" />
      <point x="930" y="227" type="qcurve" />
      <point x="945" y="303" />
      <point x="945" y="449" />
      <point x="930" y="524" type="qcurve" />
      <point x="898" y="692" />
      <point x="802" y="806" type="qcurve" />
      <point x="797" y="811" />
      <point x="797" y="819" type="qcurve" />
      <point x="797" y="834" />
      <point x="811" y="835" type="qcurve" />
      <point x="819" y="835" />
      <point x="842" y="813" type="qcurve" />
      <point x="901" y="758" />
      <point x="950" y="654" type="qcurve" />
      <point x="1013" y="523" />
      <point x="1014" y="229" />
      <point x="950" y="98" type="qcurve" />
      <point x="901" y="-7" />
      <point x="842" y="-61" type="qcurve" />
      <point x="819" y="-83" />
    </contour>
  </outline>
</glyph>
<glyph name="u1F125" format="2">
  <unicode hex="1F125" />
  <advance width="1024" />
  <outline>
    <contour>
      <point x="265" y="655" type="qcurve" />
      <point x="265" y="667" />
      <point x="288" y="668" type="qcurve" />
      <point x="334" y="668" />
      <point x="336" y="651" type="qcurve" />
      <point x="339" y="642" />
      <point x="346" y="618" />
      <point x="360" y="582" type="qcurve" />
      <point x="427" y="418" />
      <point x="509" y="166" type="qcurve" />
      <point x="597" y="404" />
      <point x="689" y="632" />
      <point x="698" y="665" type="qcurve" />
      <point x="701" y="674" />
      <point x="729" y="674" />
      <point x="762" y="654" />
      <point x="762" y="643" type="qcurve" />
      <point x="762" y="640" />
      <point x="739" y="600" />
      <point x="634" y="355" />
      <point x="596" y="252" type="qcurve" />
      <point x="545" y="120" />
      <point x="542" y="89" type="qcurve" />
      <point x="539" y="70" />
      <point x="520" y="70" type="qcurve" />
      <point x="508" y="70" />
      <point x="477" y="95" />
      <point x="468" y="122" type="qcurve" />
      <point x="382" y="379" />
      <point x="291" y="594" type="qcurve" />
      <point x="275" y="634" />
      <point x="265" y="652" />
    </contour>
    <contour>
      <point x="212" y="-83" type="qcurve" />
      <point x="204" y="-83" />
      <point x="159" y="-40" />
      <point x="100" y="41" />
      <point x="45" y="155" />
      <point x="9" y="295" />
      <point x="9" y="457" />
      <point x="45" y="598" />
      <point x="100" y="711" />
      <point x="159" y="792" />
      <point x="204" y="835" />
      <point x="212" y="835" type="qcurve" />
      <point x="226" y="835" />
      <point x="226" y="819" type="qcurve" />
      <point x="226" y="811" />
      <point x="221" y="806" type="qcurve" />
      <point x="125" y="692" />
      <point x="92" y="524" type="qcurve" />
      <point x="78" y="448" />
      <point x="78" y="303" />
      <point x="92" y="227" type="qcurve" />
      <point x="125" y="61" />
      <point x="221" y="-54" type="qcurve" />
      <point x="226" y="-59" />
      <point x="226" y="-68" type="qcurve" />
      <point x="226" y="-83" />
    </contour>
    <contour>
      <point x="811" y="-83" type="qcurve" />
      <point x="797" y="-83" />
      <point x="797" y="-68" type="qcurve" />
      <point x="797" y="-60" />
      <point x="802" y="-54" type="qcurve" />
      <point x="898" y="62" />
      <point x="930" y="227" type="qcurve" />
      <point x="945" y="303" />
      <point x="945" y="449" />
      <point x="930" y="524" type="qcurve" />
      <point x="898" y="692" />
      <point x="802" y="806" type="qcurve" />
      <point x="797" y="811" />
      <point x="797" y="819" type="qcurve" />
      <point x="797" y="834" />
      <point x="811" y="835" type="qcurve" />
      <point x="819" y="835" />
      <point x="842" y="813" type="qcurve" />
      <point x="901" y="758" />
      <point x="950" y="654" type="qcurve" />
      <point x="1013" y="523" />
      <point x="1014" y="229" />
      <point x="950" y="98" type="qcurve" />
      <point x="901" y="-7" />
      <point x="842" y="-61" type="qcurve" />
      <point x="819" y="-83" />
    </contour>
  </outline>
</glyph>
<glyph name="u1F126" format="2">
  <unicode hex="1F126" />
  <advance width="1024" />
  <outline>
    <contour>
      <point x="474" y="640" type="qcurve" />
      <point x="474" y="656" />
      <point x="505" y="656" type="qcurve" />
      <point x="519" y="656" />
      <point x="548" y="646" />
      <point x="549" y="637" type="qcurve" />
      <point x="556" y="608" type="line" />
      <point x="627" y="372" />
      <point x="669" y="166" type="qcurve" />
      <point x="730" y="394" />
      <point x="792" y="593" />
      <point x="804" y="643" />
      <point x="811" y="666" type="qcurve" />
      <point x="813" y="674" />
      <point x="840" y="674" />
      <point x="876" y="653" />
      <point x="876" y="642" type="qcurve" />
      <point x="876" y="639" />
      <point x="867" y="621" type="qcurve" />
      <point x="827" y="534" />
      <point x="709" y="120" />
      <point x="697" y="70" />
      <point x="664" y="70" />
      <point x="633" y="96" />
      <point x="626" y="122" type="qcurve" />
      <point x="567" y="380" />
      <point x="514" y="566" type="qcurve" />
      <point x="478" y="448" />
      <point x="415" y="216" />
      <point x="391" y="136" />
      <point x="385" y="106" />
      <point x="373" y="71" />
      <point x="342" y="71" />
      <point x="311" y="97" />
      <point x="295" y="168" />
      <point x="265" y="285" />
      <point x="196" y="560" />
      <point x="159" y="651" type="qcurve" />
      <point x="158" y="655" type="line" />
      <point x="158" y="668" />
      <point x="224" y="669" />
      <point x="226" y="652" type="qcurve" />
      <point x="301" y="387" />
      <point x="346" y="167" type="qcurve" />
      <point x="375" y="287" />
      <point x="471" y="612" />
    </contour>
    <contour>
      <point x="212" y="-83" type="qcurve" />
      <point x="204" y="-83" />
      <point x="159" y="-40" />
      <point x="100" y="41" />
      <point x="45" y="155" />
      <point x="9" y="295" />
      <point x="9" y="457" />
      <point x="45" y="598" />
      <point x="100" y="711" />
      <point x="159" y="792" />
      <point x="204" y="835" />
      <point x="212" y="835" type="qcurve" />
      <point x="226" y="835" />
      <point x="226" y="819" type="qcurve" />
      <point x="226" y="811" />
      <point x="221" y="806" type="qcurve" />
      <point x="125" y="692" />
      <point x="92" y="524" type="qcurve" />
      <point x="78" y="448" />
      <point x="78" y="303" />
      <point x="92" y="227" type="qcurve" />
      <point x="125" y="61" />
      <point x="221" y="-54" type="qcurve" />
      <point x="226" y="-59" />
      <point x="226" y="-68" type="qcurve" />
      <point x="226" y="-83" />
    </contour>
    <contour>
      <point x="811" y="-83" type="qcurve" />
      <point x="797" y="-83" />
      <point x="797" y="-68" type="qcurve" />
      <point x="797" y="-60" />
      <point x="802" y="-54" type="qcurve" />
      <point x="898" y="62" />
      <point x="930" y="227" type="qcurve" />
      <point x="945" y="303" />
      <point x="945" y="449" />
      <point x="930" y="524" type="qcurve" />
      <point x="898" y="692" />
      <point x="802" y="806" type="qcurve" />
      <point x="797" y="811" />
      <point x="797" y="819" type="qcurve" />
      <point x="797" y="834" />
      <point x="811" y="835" type="qcurve" />
      <point x="819" y="835" />
      <point x="842" y="813" type="qcurve" />
      <point x="901" y="758" />
      <point x="950" y="654" type="qcurve" />
      <point x="1013" y="523" />
      <point x="1014" y="229" />
      <point x="950" y="98" type="qcurve" />
      <point x="901" y="-7" />
      <point x="842" y="-61" type="qcurve" />
      <point x="819" y="-83" />
    </contour>
  </outline>
</glyph>
<glyph name="u1F127" format="2">
  <unicode hex="1F127" />
  <advance width="1024" />
  <outline>
    <contour>
      <point x="477" y="390" type="line" />
      <point x="436" y="455" />
      <point x="325" y="612" />
      <point x="298" y="641" />
      <point x="298" y="645" type="qcurve" />
      <point x="298" y="656" />
      <point x="332" y="671" />
      <point x="359" y="671" />
      <point x="364" y="665" type="qcurve" />
      <point x="376" y="641" />
      <point x="422" y="571" type="qcurve" />
      <point x="515" y="432" type="line" />
      <point x="551" y="475" />
      <point x="676" y="659" type="qcurve" />
      <point x="680" y="664" />
      <point x="701" y="665" />
      <point x="731" y="646" />
      <point x="731" y="632" />
      <point x="723" y="623" type="qcurve" />
      <point x="684" y="582" />
      <point x="545" y="384" type="qcurve" />
      <point x="657" y="214" />
      <point x="713" y="151" type="qcurve" />
      <point x="737" y="123" />
      <point x="753" y="104" />
      <point x="753" y="100" type="qcurve" />
      <point x="753" y="90" />
      <point x="721" y="74" />
      <point x="693" y="74" />
      <point x="687" y="81" type="qcurve" />
      <point x="679" y="92" />
      <point x="652" y="133" />
      <point x="607" y="197" />
      <point x="543" y="294" />
      <point x="510" y="343" type="qcurve" />
      <point x="456" y="263" />
      <point x="351" y="111" />
      <point x="335" y="84" type="qcurve" />
      <point x="329" y="76" />
      <point x="297" y="76" />
      <point x="268" y="88" />
      <point x="268" y="96" type="qcurve" />
      <point x="268" y="100" />
      <point x="321" y="160" />
      <point x="337" y="186" type="qcurve" />
    </contour>
    <contour>
      <point x="212" y="-83" type="qcurve" />
      <point x="204" y="-83" />
      <point x="159" y="-40" />
      <point x="100" y="41" />
      <point x="45" y="155" />
      <point x="9" y="295" />
      <point x="9" y="457" />
      <point x="45" y="598" />
      <point x="100" y="711" />
      <point x="159" y="792" />
      <point x="204" y="835" />
      <point x="212" y="835" type="qcurve" />
      <point x="226" y="835" />
      <point x="226" y="819" type="qcurve" />
      <point x="226" y="811" />
      <point x="221" y="806" type="qcurve" />
      <point x="125" y="692" />
      <point x="92" y="524" type="qcurve" />
      <point x="78" y="448" />
      <point x="78" y="303" />
      <point x="92" y="227" type="qcurve" />
      <point x="125" y="61" />
      <point x="221" y="-54" type="qcurve" />
      <point x="226" y="-59" />
      <point x="226" y="-68" type="qcurve" />
      <point x="226" y="-83" />
    </contour>
    <contour>
      <point x="811" y="-83" type="qcurve" />
      <point x="797" y="-83" />
      <point x="797" y="-68" type="qcurve" />
      <point x="797" y="-60" />
      <point x="802" y="-54" type="qcurve" />
      <point x="898" y="62" />
      <point x="930" y="227" type="qcurve" />
      <point x="945" y="303" />
      <point x="945" y="449" />
      <point x="930" y="524" type="qcurve" />
      <point x="898" y="692" />
      <point x="802" y="806" type="qcurve" />
      <point x="797" y="811" />
      <point x="797" y="819" type="qcurve" />
      <point x="797" y="834" />
      <point x="811" y="835" type="qcurve" />
      <point x="819" y="835" />
      <point x="842" y="813" type="qcurve" />
      <point x="901" y="758" />
      <point x="950" y="654" type="qcurve" />
      <point x="1013" y="523" />
      <point x="1014" y="229" />
      <point x="950" y="98" type="qcurve" />
      <point x="901" y="-7" />
      <point x="842" y="-61" type="qcurve" />
      <point x="819" y="-83" />
    </contour>
  </outline>
</glyph>
<glyph name="u1F128" format="2">
  <unicode hex="1F128" />
  <advance width="1024" />
  <outline>
    <contour>
      <point x="483" y="100" type="qcurve" />
      <point x="484" y="174" type="line" />
      <point x="484" y="327" type="line" />
      <point x="405" y="471" />
      <point x="323" y="590" type="qcurve" />
      <point x="299" y="624" />
      <point x="283" y="643" />
      <point x="283" y="647" type="qcurve" />
      <point x="283" y="656" />
      <point x="313" y="666" />
      <point x="345" y="666" />
      <point x="355" y="650" />
      <point x="370" y="621" />
      <point x="450" y="496" />
      <point x="514" y="383" type="qcurve" />
      <point x="551" y="445" />
      <point x="676" y="642" />
      <point x="688" y="664" type="qcurve" />
      <point x="692" y="672" />
      <point x="723" y="672" />
      <point x="753" y="658" />
      <point x="753" y="650" type="qcurve" />
      <point x="753" y="647" />
      <point x="730" y="621" />
      <point x="678" y="546" />
      <point x="626" y="462" />
      <point x="580" y="386" />
      <point x="549" y="333" />
      <point x="545" y="327" type="qcurve" />
      <point x="545" y="173" type="line" />
      <point x="545" y="163" />
      <point x="546" y="129" />
      <point x="547" y="95" />
      <point x="547" y="76" />
      <point x="515" y="76" />
      <point x="483" y="90" />
    </contour>
    <contour>
      <point x="212" y="-83" type="qcurve" />
      <point x="204" y="-83" />
      <point x="159" y="-40" />
      <point x="100" y="41" />
      <point x="45" y="155" />
      <point x="9" y="295" />
      <point x="9" y="457" />
      <point x="45" y="598" />
      <point x="100" y="711" />
      <point x="159" y="792" />
      <point x="204" y="835" />
      <point x="212" y="835" type="qcurve" />
      <point x="226" y="835" />
      <point x="226" y="819" type="qcurve" />
      <point x="226" y="811" />
      <point x="221" y="806" type="qcurve" />
      <point x="125" y="692" />
      <point x="92" y="524" type="qcurve" />
      <point x="78" y="448" />
      <point x="78" y="303" />
      <point x="92" y="227" type="qcurve" />
      <point x="125" y="61" />
      <point x="221" y="-54" type="qcurve" />
      <point x="226" y="-59" />
      <point x="226" y="-68" type="qcurve" />
      <point x="226" y="-83" />
    </contour>
    <contour>
      <point x="811" y="-83" type="qcurve" />
      <point x="797" y="-83" />
      <point x="797" y="-68" type="qcurve" />
      <point x="797" y="-60" />
      <point x="802" y="-54" type="qcurve" />
      <point x="898" y="62" />
      <point x="930" y="227" type="qcurve" />
      <point x="945" y="303" />
      <point x="945" y="449" />
      <point x="930" y="524" type="qcurve" />
      <point x="898" y="692" />
      <point x="802" y="806" type="qcurve" />
      <point x="797" y="811" />
      <point x="797" y="819" type="qcurve" />
      <point x="797" y="834" />
      <point x="811" y="835" type="qcurve" />
      <point x="819" y="835" />
      <point x="842" y="813" type="qcurve" />
      <point x="901" y="758" />
      <point x="950" y="654" type="qcurve" />
      <point x="1013" y="523" />
      <point x="1014" y="229" />
      <point x="950" y="98" type="qcurve" />
      <point x="901" y="-7" />
      <point x="842" y="-61" type="qcurve" />
      <point x="819" y="-83" />
    </contour>
  </outline>
</glyph>
<glyph name="u1F129" format="2">
  <unicode hex="1F129" />
  <advance width="1024" />
  <outline>
    <contour>
      <point x="563" y="140" type="line" />
      <point x="670" y="139" type="line" />
      <point x="688" y="139" />
      <point x="700" y="140" type="qcurve" />
      <point x="701" y="140" type="line" />
      <point x="712" y="140" />
      <point x="728" y="110" />
      <point x="728" y="83" />
      <point x="719" y="83" type="qcurve" />
      <point x="718" y="83" type="line" />
      <point x="699" y="85" />
      <point x="632" y="88" type="qcurve" />
      <point x="496" y="88" type="line" />
      <point x="345" y="88" />
      <point x="326" y="80" type="qcurve" />
      <point x="319" y="78" />
      <point x="301" y="78" />
      <point x="276" y="105" />
      <point x="276" y="124" />
      <point x="280" y="134" />
      <point x="301" y="153" />
      <point x="304" y="157" type="qcurve" />
      <point x="421" y="337" />
      <point x="567" y="536" />
      <point x="628" y="612" type="qcurve" />
      <point x="418" y="598" type="line" />
      <point x="356" y="592" type="line" />
      <point x="355" y="592" type="line" />
      <point x="342" y="592" />
      <point x="322" y="628" />
      <point x="322" y="650" />
      <point x="329" y="650" type="qcurve" />
      <point x="331" y="650" type="line" />
      <point x="346" y="647" />
      <point x="397" y="647" />
      <point x="418" y="649" type="qcurve" />
      <point x="618" y="663" type="line" />
      <point x="637" y="664" />
      <point x="674" y="669" />
      <point x="697" y="669" />
      <point x="720" y="637" />
      <point x="720" y="617" />
      <point x="714" y="614" type="qcurve" />
      <point x="695" y="607" />
      <point x="682" y="590" type="qcurve" />
      <point x="523" y="396" />
      <point x="359" y="135" type="qcurve" />
      <point x="408" y="140" />
      <point x="467" y="140" type="qcurve" />
    </contour>
    <contour>
      <point x="212" y="-83" type="qcurve" />
      <point x="204" y="-83" />
      <point x="159" y="-40" />
      <point x="100" y="41" />
      <point x="45" y="155" />
      <point x="9" y="295" />
      <point x="9" y="457" />
      <point x="45" y="598" />
      <point x="100" y="711" />
      <point x="159" y="792" />
      <point x="204" y="835" />
      <point x="212" y="835" type="qcurve" />
      <point x="226" y="835" />
      <point x="226" y="819" type="qcurve" />
      <point x="226" y="811" />
      <point x="221" y="806" type="qcurve" />
      <point x="125" y="692" />
      <point x="92" y="524" type="qcurve" />
      <point x="78" y="448" />
      <point x="78" y="303" />
      <point x="92" y="227" type="qcurve" />
      <point x="125" y="61" />
      <point x="221" y="-54" type="qcurve" />
      <point x="226" y="-59" />
      <point x="226" y="-68" type="qcurve" />
      <point x="226" y="-83" />
    </contour>
    <contour>
      <point x="811" y="-83" type="qcurve" />
      <point x="797" y="-83" />
      <point x="797" y="-68" type="qcurve" />
      <point x="797" y="-60" />
      <point x="802" y="-54" type="qcurve" />
      <point x="898" y="62" />
      <point x="930" y="227" type="qcurve" />
      <point x="945" y="303" />
      <point x="945" y="449" />
      <point x="930" y="524" type="qcurve" />
      <point x="898" y="692" />
      <point x="802" y="806" type="qcurve" />
      <point x="797" y="811" />
      <point x="797" y="819" type="qcurve" />
      <point x="797" y="834" />
      <point x="811" y="835" type="qcurve" />
      <point x="819" y="835" />
      <point x="842" y="813" type="qcurve" />
      <point x="901" y="758" />
      <point x="950" y="654" type="qcurve" />
      <point x="1013" y="523" />
      <point x="1014" y="229" />
      <point x="950" y="98" type="qcurve" />
      <point x="901" y="-7" />
      <point x="842" y="-61" type="qcurve" />
      <point x="819" y="-83" />
    </contour>
  </outline>
</glyph>
<glyph name="u1F130" format="2">
  <unicode hex="1F130" />
  <advance width="1024" />
  <outline>
    <contour>
      <point x="622" y="329" type="line" />
      <point x="554" y="485" />
      <point x="517" y="582" type="qcurve" />
      <point x="462" y="460" />
      <point x="396" y="319" type="qcurve" />
    </contour>
    <contour>
      <point x="555" y="646" type="qcurve" />
      <point x="552" y="630" type="line" />
      <point x="552" y="626" />
      <point x="634" y="422" />
      <point x="756" y="156" />
      <point x="792" y="104" type="qcurve" />
      <point x="795" y="100" />
      <point x="795" y="96" type="qcurve" />
      <point x="795" y="87" />
      <point x="765" y="76" />
      <point x="729" y="76" />
      <point x="725" y="86" type="qcurve" />
      <point x="714" y="125" />
      <point x="674" y="212" />
      <point x="642" y="282" type="qcurve" />
      <point x="375" y="270" type="line" />
      <point x="371" y="270" type="line" />
      <point x="358" y="241" />
      <point x="344" y="215" type="qcurve" />
      <point x="319" y="166" type="line" />
      <point x="307" y="143" />
      <point x="289" y="91" type="qcurve" />
      <point x="285" y="77" />
      <point x="221" y="77" />
      <point x="221" y="92" type="qcurve" />
      <point x="221" y="96" />
      <point x="233" y="118" />
      <point x="266" y="179" />
      <point x="299" y="245" />
      <point x="309" y="264" type="qcurve" />
      <point x="303" y="264" type="line" />
      <point x="294" y="264" />
      <point x="278" y="295" />
      <point x="278" y="319" />
      <point x="286" y="319" type="qcurve" />
      <point x="288" y="319" type="line" />
      <point x="295" y="318" />
      <point x="302" y="318" type="qcurve" />
      <point x="336" y="318" type="line" />
      <point x="441" y="525" />
      <point x="480" y="625" type="qcurve" />
      <point x="483" y="633" />
      <point x="487" y="664" />
      <point x="496" y="673" />
      <point x="521" y="673" />
      <point x="555" y="656" />
    </contour>
    <contour>
      <point x="913" y="778" type="line" />
      <point x="111" y="778" type="line" />
      <point x="111" y="-25" type="line" />
      <point x="913" y="-25" type="line" />
    </contour>
    <contour>
      <point x="59" y="-76" type="line" />
      <point x="59" y="829" type="line" />
      <point x="965" y="829" type="line" />
      <point x="965" y="-76" type="line" />
    </contour>
  </outline>
</glyph>
<glyph name="u1F131" format="2">
  <unicode hex="1F131" />
  <advance width="1024" />
  <outline>
    <contour>
      <point x="535" y="380" type="qcurve" />
      <point x="516" y="381" />
      <point x="440" y="381" />
      <point x="387" y="375" type="qcurve" />
      <point x="387" y="117" type="line" />
      <point x="680" y="117" />
      <point x="680" y="260" type="qcurve" />
      <point x="680" y="325" />
      <point x="627" y="354" type="qcurve" />
      <point x="586" y="377" />
    </contour>
    <contour>
      <point x="633" y="541" type="qcurve" />
      <point x="633" y="624" />
      <point x="497" y="624" type="qcurve" />
      <point x="440" y="624" />
      <point x="387" y="609" type="qcurve" />
      <point x="387" y="423" type="line" />
      <point x="400" y="423" type="line" />
      <point x="556" y="423" />
      <point x="612" y="487" type="qcurve" />
      <point x="633" y="511" />
    </contour>
    <contour>
      <point x="330" y="602" type="line" />
      <point x="319" y="605" />
      <point x="296" y="629" />
      <point x="296" y="644" />
      <point x="302" y="647" type="qcurve" />
      <point x="331" y="659" />
      <point x="474" y="674" />
      <point x="507" y="674" type="qcurve" />
      <point x="606" y="674" />
      <point x="692" y="600" />
      <point x="692" y="481" />
      <point x="637" y="441" type="qcurve" />
      <point x="612" y="424" />
      <point x="589" y="415" type="qcurve" />
      <point x="629" y="411" />
      <point x="697" y="370" />
      <point x="738" y="304" />
      <point x="738" y="208" />
      <point x="716" y="173" type="qcurve" />
      <point x="674" y="108" />
      <point x="575" y="90" type="qcurve" />
      <point x="503" y="76" />
      <point x="351" y="76" />
      <point x="300" y="82" />
      <point x="286" y="93" />
      <point x="286" y="103" />
      <point x="296" y="113" />
      <point x="303" y="113" type="qcurve" />
      <point x="317" y="113" type="line" />
      <point x="325" y="113" />
      <point x="330" y="114" type="qcurve" />
    </contour>
    <contour>
      <point x="913" y="778" type="line" />
      <point x="111" y="778" type="line" />
      <point x="111" y="-25" type="line" />
      <point x="913" y="-25" type="line" />
    </contour>
    <contour>
      <point x="59" y="-76" type="line" />
      <point x="59" y="829" type="line" />
      <point x="965" y="829" type="line" />
      <point x="965" y="-76" type="line" />
    </contour>
  </outline>
</glyph>
<glyph name="u1F132" format="2">
  <unicode hex="1F132" />
  <advance width="1024" />
  <outline>
    <contour>
      <point x="752" y="250" />
      <point x="774" y="250" />
      <point x="774" y="225" />
      <point x="738" y="172" />
      <point x="705" y="142" type="qcurve" />
      <point x="622" y="69" />
      <point x="511" y="70" type="qcurve" />
      <point x="354" y="70" />
      <point x="291" y="178" type="qcurve" />
      <point x="257" y="235" />
      <point x="257" y="317" type="qcurve" />
      <point x="257" y="473" />
      <point x="342" y="575" type="qcurve" />
      <point x="428" y="675" />
      <point x="553" y="676" type="qcurve" />
      <point x="646" y="676" />
      <point x="699" y="638" type="qcurve" />
      <point x="721" y="623" />
      <point x="739" y="599" />
      <point x="739" y="597" type="qcurve" />
      <point x="739" y="585" />
      <point x="717" y="556" />
      <point x="697" y="556" />
      <point x="687" y="572" />
      <point x="672" y="586" type="qcurve" />
      <point x="630" y="623" />
      <point x="488" y="623" />
      <point x="383" y="548" />
      <point x="317" y="416" />
      <point x="317" y="329" type="qcurve" />
      <point x="317" y="220" />
      <point x="428" y="122" />
      <point x="595" y="122" />
      <point x="678" y="178" type="qcurve" />
      <point x="717" y="204" />
      <point x="742" y="238" type="qcurve" />
    </contour>
    <contour>
      <point x="913" y="778" type="line" />
      <point x="111" y="778" type="line" />
      <point x="111" y="-25" type="line" />
      <point x="913" y="-25" type="line" />
    </contour>
    <contour>
      <point x="59" y="-76" type="line" />
      <point x="59" y="829" type="line" />
      <point x="965" y="829" type="line" />
      <point x="965" y="-76" type="line" />
    </contour>
  </outline>
</glyph>
<glyph name="u1F133" format="2">
  <unicode hex="1F133" />
  <advance width="1024" />
  <outline>
    <contour>
      <point x="369" y="118" type="line" />
      <point x="534" y="118" />
      <point x="634" y="193" type="qcurve" />
      <point x="722" y="259" />
      <point x="722" y="492" />
      <point x="568" y="624" />
      <point x="470" y="624" type="qcurve" />
      <point x="416" y="624" />
      <point x="369" y="610" type="qcurve" />
    </contour>
    <contour>
      <point x="358" y="78" type="line" />
      <point x="265" y="78" />
      <point x="265" y="96" type="qcurve" />
      <point x="265" y="106" />
      <point x="289" y="113" />
      <point x="310" y="113" type="qcurve" />
      <point x="310" y="603" type="line" />
      <point x="299" y="605" />
      <point x="276" y="630" />
      <point x="276" y="646" />
      <point x="283" y="649" type="qcurve" />
      <point x="314" y="662" />
      <point x="445" y="675" />
      <point x="474" y="675" type="qcurve" />
      <point x="557" y="675" />
      <point x="696" y="602" />
      <point x="780" y="470" />
      <point x="780" y="312" />
      <point x="738" y="212" />
      <point x="702" y="176" type="qcurve" />
      <point x="633" y="109" />
      <point x="455" y="78" />
      <point x="375" y="78" type="qcurve" />
    </contour>
    <contour>
      <point x="913" y="778" type="line" />
      <point x="111" y="778" type="line" />
      <point x="111" y="-25" type="line" />
      <point x="913" y="-25" type="line" />
    </contour>
    <contour>
      <point x="59" y="-76" type="line" />
      <point x="59" y="829" type="line" />
      <point x="965" y="829" type="line" />
      <point x="965" y="-76" type="line" />
    </contour>
  </outline>
</glyph>
<glyph name="u1F135" format="2">
  <unicode hex="1F135" />
  <advance width="1024" />
  <outline>
    <contour>
      <point x="359" y="610" type="line" />
      <point x="356" y="645" type="line" />
      <point x="356" y="652" type="line" />
      <point x="356" y="658" />
      <point x="360" y="664" />
      <point x="379" y="664" />
      <point x="411" y="654" />
      <point x="412" y="653" type="qcurve" />
      <point x="636" y="668" type="line" />
      <point x="655" y="670" />
      <point x="698" y="675" />
      <point x="717" y="675" />
      <point x="733" y="646" />
      <point x="733" y="620" />
      <point x="724" y="620" type="qcurve" />
      <point x="688" y="620" type="line" />
      <point x="660" y="620" />
      <point x="637" y="618" type="qcurve" />
      <point x="418" y="603" type="line" />
      <point x="418" y="419" type="line" />
      <point x="591" y="429" type="line" />
      <point x="609" y="431" />
      <point x="652" y="436" />
      <point x="671" y="436" />
      <point x="687" y="407" />
      <point x="687" y="380" />
      <point x="677" y="380" type="qcurve" />
      <point x="592" y="380" type="line" />
      <point x="418" y="370" type="line" />
      <point x="418" y="173" type="line" />
      <point x="418" y="163" />
      <point x="419" y="129" />
      <point x="420" y="95" />
      <point x="420" y="76" />
      <point x="389" y="76" />
      <point x="357" y="90" />
      <point x="357" y="100" type="qcurve" />
      <point x="359" y="174" type="line" />
      <point x="359" y="370" type="line" />
      <point x="350" y="375" />
      <point x="337" y="401" />
      <point x="337" y="419" />
      <point x="343" y="419" type="qcurve" />
      <point x="345" y="419" type="line" />
      <point x="359" y="418" type="line" />
    </contour>
    <contour>
      <point x="913" y="778" type="line" />
      <point x="111" y="778" type="line" />
      <point x="111" y="-25" type="line" />
      <point x="913" y="-25" type="line" />
    </contour>
    <contour>
      <point x="59" y="-76" type="line" />
      <point x="59" y="829" type="line" />
      <point x="965" y="829" type="line" />
      <point x="965" y="-76" type="line" />
    </contour>
  </outline>
</glyph>
<glyph name="u1F137" format="2">
  <unicode hex="1F137" />
  <advance width="1024" />
  <outline>
    <contour>
      <point x="665" y="99" type="qcurve" />
      <point x="667" y="173" type="line" />
      <point x="667" y="384" type="line" />
      <point x="662" y="384" type="line" />
      <point x="600" y="386" type="line" />
      <point x="594" y="386" />
      <point x="582" y="386" />
      <point x="575" y="385" type="qcurve" />
      <point x="362" y="373" type="line" />
      <point x="362" y="171" type="line" />
      <point x="366" y="83" type="line" />
      <point x="366" y="75" />
      <point x="335" y="75" />
      <point x="303" y="88" />
      <point x="303" y="98" type="qcurve" />
      <point x="304" y="172" type="line" />
      <point x="304" y="367" type="line" />
      <point x="302" y="366" />
      <point x="299" y="366" type="qcurve" />
      <point x="298" y="366" type="line" />
      <point x="288" y="366" />
      <point x="271" y="395" />
      <point x="271" y="423" />
      <point x="282" y="423" type="qcurve" />
      <point x="304" y="422" type="line" />
      <point x="304" y="572" type="line" />
      <point x="302" y="660" type="line" />
      <point x="302" y="669" />
      <point x="334" y="670" />
      <point x="365" y="657" />
      <point x="365" y="646" type="qcurve" />
      <point x="362" y="571" type="line" />
      <point x="362" y="422" type="line" />
      <point x="575" y="434" type="line" />
      <point x="594" y="435" />
      <point x="634" y="439" />
      <point x="644" y="440" type="qcurve" />
      <point x="647" y="440" type="line" />
      <point x="657" y="440" />
      <point x="667" y="421" type="qcurve" />
      <point x="667" y="572" type="line" />
      <point x="664" y="660" type="line" />
      <point x="664" y="669" />
      <point x="695" y="670" />
      <point x="726" y="657" />
      <point x="726" y="646" type="qcurve" />
      <point x="724" y="571" type="line" />
      <point x="724" y="172" type="line" />
      <point x="727" y="84" type="line" />
      <point x="727" y="76" />
      <point x="696" y="76" />
      <point x="665" y="89" />
    </contour>
    <contour>
      <point x="913" y="778" type="line" />
      <point x="111" y="778" type="line" />
      <point x="111" y="-25" type="line" />
      <point x="913" y="-25" type="line" />
    </contour>
    <contour>
      <point x="59" y="-76" type="line" />
      <point x="59" y="829" type="line" />
      <point x="965" y="829" type="line" />
      <point x="965" y="-76" type="line" />
    </contour>
  </outline>
</glyph>
<glyph name="u1F138" format="2">
  <unicode hex="1F138" />
  <advance width="1024" />
  <outline>
    <contour>
      <point x="478" y="99" type="qcurve" />
      <point x="479" y="173" type="line" />
      <point x="479" y="572" type="line" />
      <point x="477" y="660" type="line" />
      <point x="477" y="669" />
      <point x="510" y="670" />
      <point x="543" y="657" />
      <point x="543" y="646" type="qcurve" />
      <point x="541" y="571" type="line" />
      <point x="541" y="172" type="line" />
      <point x="544" y="84" type="line" />
      <point x="544" y="76" />
      <point x="512" y="76" />
      <point x="478" y="89" />
    </contour>
    <contour>
      <point x="913" y="778" type="line" />
      <point x="111" y="778" type="line" />
      <point x="111" y="-25" type="line" />
      <point x="913" y="-25" type="line" />
    </contour>
    <contour>
      <point x="59" y="-76" type="line" />
      <point x="59" y="829" type="line" />
      <point x="965" y="829" type="line" />
      <point x="965" y="-76" type="line" />
    </contour>
  </outline>
</glyph>
<glyph name="u1F139" format="2">
  <unicode hex="1F139" />
  <advance width="1024" />
  <outline>
    <contour>
      <point x="633" y="646" type="qcurve" />
      <point x="632" y="571" type="line" />
      <point x="632" y="231" type="line" />
      <point x="632" y="114" />
      <point x="557" y="84" type="qcurve" />
      <point x="524" y="70" />
      <point x="437" y="70" />
      <point x="344" y="126" />
      <point x="327" y="178" type="qcurve" />
      <point x="326" y="180" />
      <point x="326" y="201" />
      <point x="357" y="227" />
      <point x="379" y="227" />
      <point x="380" y="218" type="qcurve" />
      <point x="390" y="183" />
      <point x="402" y="166" type="qcurve" />
      <point x="432" y="125" />
      <point x="483" y="125" type="qcurve" />
      <point x="572" y="125" />
      <point x="572" y="233" type="qcurve" />
      <point x="572" y="572" type="line" />
      <point x="570" y="660" type="line" />
      <point x="570" y="669" />
      <point x="602" y="670" />
      <point x="633" y="657" />
    </contour>
    <contour>
      <point x="913" y="778" type="line" />
      <point x="111" y="778" type="line" />
      <point x="111" y="-25" type="line" />
      <point x="913" y="-25" type="line" />
    </contour>
    <contour>
      <point x="59" y="-76" type="line" />
      <point x="59" y="829" type="line" />
      <point x="965" y="829" type="line" />
      <point x="965" y="-76" type="line" />
    </contour>
  </outline>
</glyph>
<glyph name="u1F13A" format="2">
  <unicode hex="1F13A" />
  <advance width="1024" />
  <outline>
    <contour>
      <point x="335" y="98" type="qcurve" />
      <point x="337" y="177" type="line" />
      <point x="337" y="572" type="line" />
      <point x="335" y="660" type="line" />
      <point x="335" y="669" />
      <point x="367" y="670" />
      <point x="396" y="657" />
      <point x="396" y="646" type="qcurve" />
      <point x="395" y="571" type="line" />
      <point x="395" y="426" type="line" />
      <point x="488" y="498" />
      <point x="610" y="614" type="qcurve" />
      <point x="643" y="645" />
      <point x="658" y="664" type="qcurve" />
      <point x="663" y="669" />
      <point x="687" y="669" />
      <point x="722" y="649" />
      <point x="722" y="639" type="qcurve" />
      <point x="722" y="636" />
      <point x="719" y="633" type="qcurve" />
      <point x="681" y="603" />
      <point x="588" y="517" />
      <point x="462" y="415" type="qcurve" />
      <point x="525" y="341" />
      <point x="680" y="182" />
      <point x="721" y="140" />
      <point x="765" y="104" />
      <point x="765" y="100" type="qcurve" />
      <point x="765" y="93" />
      <point x="731" y="77" />
      <point x="693" y="77" />
      <point x="686" y="87" type="qcurve" />
      <point x="677" y="103" />
      <point x="629" y="153" />
      <point x="465" y="329" />
      <point x="420" y="380" type="qcurve" />
      <point x="395" y="360" type="line" />
      <point x="395" y="176" type="line" />
      <point x="397" y="83" type="line" />
      <point x="397" y="75" />
      <point x="367" y="75" />
      <point x="335" y="88" />
    </contour>
    <contour>
      <point x="913" y="778" type="line" />
      <point x="111" y="778" type="line" />
      <point x="111" y="-25" type="line" />
      <point x="913" y="-25" type="line" />
    </contour>
    <contour>
      <point x="59" y="-76" type="line" />
      <point x="59" y="829" type="line" />
      <point x="965" y="829" type="line" />
      <point x="965" y="-76" type="line" />
    </contour>
  </outline>
</glyph>
<glyph name="u1F13B" format="2">
  <unicode hex="1F13B" />
  <advance width="1024" />
  <outline>
    <contour>
      <point x="420" y="133" type="line" />
      <point x="522" y="137" />
      <point x="578" y="137" type="qcurve" />
      <point x="653" y="137" type="line" />
      <point x="671" y="137" />
      <point x="683" y="138" type="qcurve" />
      <point x="684" y="138" type="line" />
      <point x="694" y="138" />
      <point x="710" y="108" />
      <point x="710" y="80" />
      <point x="701" y="80" type="qcurve" />
      <point x="700" y="80" type="line" />
      <point x="671" y="85" />
      <point x="614" y="85" type="qcurve" />
      <point x="578" y="85" type="line" />
      <point x="423" y="85" />
      <point x="390" y="77" type="qcurve" />
      <point x="388" y="77" type="line" />
      <point x="378" y="77" />
      <point x="354" y="105" />
      <point x="354" y="120" />
      <point x="360" y="132" />
      <point x="360" y="142" type="qcurve" />
      <point x="360" y="572" type="line" />
      <point x="357" y="660" type="line" />
      <point x="357" y="669" />
      <point x="390" y="670" />
      <point x="422" y="657" />
      <point x="422" y="646" type="qcurve" />
      <point x="420" y="571" type="line" />
    </contour>
    <contour>
      <point x="913" y="778" type="line" />
      <point x="111" y="778" type="line" />
      <point x="111" y="-25" type="line" />
      <point x="913" y="-25" type="line" />
    </contour>
    <contour>
      <point x="59" y="-76" type="line" />
      <point x="59" y="829" type="line" />
      <point x="965" y="829" type="line" />
      <point x="965" y="-76" type="line" />
    </contour>
  </outline>
</glyph>
<glyph name="u1F13C" format="2">
  <unicode hex="1F13C" />
  <advance width="1024" />
  <outline>
    <contour>
      <point x="763" y="646" type="qcurve" />
      <point x="759" y="609" type="line" />
      <point x="759" y="605" type="line" />
      <point x="801" y="224" />
      <point x="824" y="115" />
      <point x="828" y="100" type="qcurve" />
      <point x="828" y="97" type="line" />
      <point x="828" y="89" />
      <point x="803" y="79" />
      <point x="791" y="79" type="qcurve" />
      <point x="761" y="79" />
      <point x="759" y="93" type="qcurve" />
      <point x="758" y="110" />
      <point x="757" y="136" />
      <point x="751" y="191" />
      <point x="739" y="297" />
      <point x="727" y="416" />
      <point x="715" y="535" />
      <point x="710" y="585" type="qcurve" />
      <point x="602" y="370" />
      <point x="545" y="221" type="qcurve" />
      <point x="535" y="192" />
      <point x="534" y="177" />
      <point x="505" y="163" />
      <point x="471" y="163" />
      <point x="466" y="175" type="qcurve" />
      <point x="456" y="210" />
      <point x="446" y="231" type="qcurve" />
      <point x="372" y="392" />
      <point x="306" y="577" type="qcurve" />
      <point x="297" y="447" />
      <point x="258" y="135" />
      <point x="256" y="94" type="qcurve" />
      <point x="254" y="79" />
      <point x="209" y="79" type="qcurve" />
      <point x="187" y="79" />
      <point x="187" y="90" type="qcurve" />
      <point x="187" y="92" type="line" />
      <point x="200" y="131" />
      <point x="223" y="312" />
      <point x="257" y="602" type="qcurve" />
      <point x="258" y="612" type="line" />
      <point x="256" y="635" type="line" />
      <point x="257" y="642" type="line" />
      <point x="259" y="651" />
      <point x="291" y="667" />
      <point x="326" y="667" />
      <point x="330" y="653" type="qcurve" />
      <point x="340" y="624" />
      <point x="446" y="355" />
      <point x="498" y="239" type="qcurve" />
      <point x="595" y="476" />
      <point x="682" y="653" />
      <point x="692" y="675" />
      <point x="716" y="675" />
      <point x="729" y="670" type="qcurve" />
      <point x="763" y="658" />
    </contour>
    <contour>
      <point x="913" y="778" type="line" />
      <point x="111" y="778" type="line" />
      <point x="111" y="-25" type="line" />
      <point x="913" y="-25" type="line" />
    </contour>
    <contour>
      <point x="59" y="-76" type="line" />
      <point x="59" y="829" type="line" />
      <point x="965" y="829" type="line" />
      <point x="965" y="-76" type="line" />
    </contour>
  </outline>
</glyph>
<glyph name="u1F13D" format="2">
  <unicode hex="1F13D" />
  <advance width="1024" />
  <outline>
    <contour>
      <point x="293" y="659" />
      <point x="326" y="672" />
      <point x="353" y="670" />
      <point x="360" y="656" />
      <point x="442" y="519" />
      <point x="605" y="267" />
      <point x="676" y="170" type="qcurve" />
      <point x="676" y="572" type="line" />
      <point x="672" y="660" type="line" />
      <point x="672" y="669" />
      <point x="703" y="670" />
      <point x="734" y="657" />
      <point x="734" y="646" type="qcurve" />
      <point x="732" y="571" type="line" />
      <point x="732" y="157" type="line" />
      <point x="736" y="111" type="line" />
      <point x="736" y="99" />
      <point x="701" y="74" />
      <point x="674" y="74" />
      <point x="666" y="85" type="qcurve" />
      <point x="626" y="140" />
      <point x="437" y="420" />
      <point x="351" y="564" type="qcurve" />
      <point x="351" y="171" type="line" />
      <point x="353" y="83" type="line" />
      <point x="353" y="75" />
      <point x="324" y="75" />
      <point x="292" y="88" />
      <point x="292" y="98" type="qcurve" />
      <point x="294" y="172" type="line" />
      <point x="294" y="615" type="line" />
      <point x="288" y="646" type="line" />
      <point x="289" y="650" type="line" />
    </contour>
    <contour>
      <point x="913" y="778" type="line" />
      <point x="111" y="778" type="line" />
      <point x="111" y="-25" type="line" />
      <point x="913" y="-25" type="line" />
    </contour>
    <contour>
      <point x="59" y="-76" type="line" />
      <point x="59" y="829" type="line" />
      <point x="965" y="829" type="line" />
      <point x="965" y="-76" type="line" />
    </contour>
  </outline>
</glyph>
<glyph name="u1F13E" format="2">
  <unicode hex="1F13E" />
  <advance width="1024" />
  <outline>
    <contour>
      <point x="385" y="156" type="qcurve" />
      <point x="428" y="122" />
      <point x="578" y="122" />
      <point x="674" y="199" />
      <point x="717" y="323" />
      <point x="717" y="450" />
      <point x="675" y="556" />
      <point x="592" y="626" />
      <point x="529" y="626" type="qcurve" />
      <point x="493" y="626" />
      <point x="414" y="593" />
      <point x="379" y="560" type="qcurve" />
      <point x="300" y="486" />
      <point x="300" y="366" type="qcurve" />
      <point x="300" y="221" />
    </contour>
    <contour>
      <point x="383" y="620" type="qcurve" />
      <point x="445" y="676" />
      <point x="609" y="676" />
      <point x="717" y="600" />
      <point x="775" y="469" />
      <point x="775" y="300" />
      <point x="717" y="156" />
      <point x="596" y="70" />
      <point x="413" y="70" />
      <point x="355" y="109" type="qcurve" />
      <point x="242" y="184" />
      <point x="243" y="364" type="qcurve" />
      <point x="243" y="466" />
      <point x="290" y="553" type="qcurve" />
      <point x="309" y="590" />
      <point x="349" y="630" />
      <point x="375" y="630" />
    </contour>
    <contour>
      <point x="913" y="778" type="line" />
      <point x="111" y="778" type="line" />
      <point x="111" y="-25" type="line" />
      <point x="913" y="-25" type="line" />
    </contour>
    <contour>
      <point x="59" y="-76" type="line" />
      <point x="59" y="829" type="line" />
      <point x="965" y="829" type="line" />
      <point x="965" y="-76" type="line" />
    </contour>
  </outline>
</glyph>
<glyph name="u1F13F" format="2">
  <unicode hex="1F13F" />
  <advance width="1024" />
  <outline>
    <contour>
      <point x="680" y="532" type="qcurve" />
      <point x="680" y="621" />
      <point x="527" y="622" type="qcurve" />
      <point x="465" y="622" />
      <point x="410" y="605" type="qcurve" />
      <point x="410" y="384" type="line" />
      <point x="416" y="388" />
      <point x="420" y="388" type="qcurve" />
      <point x="575" y="397" />
      <point x="643" y="456" type="qcurve" />
      <point x="680" y="486" />
    </contour>
    <contour>
      <point x="349" y="98" type="qcurve" />
      <point x="351" y="180" type="line" />
      <point x="351" y="597" type="line" />
      <point x="350" y="597" type="line" />
      <point x="338" y="597" />
      <point x="313" y="627" />
      <point x="313" y="645" />
      <point x="321" y="646" type="qcurve" />
      <point x="444" y="669" />
      <point x="500" y="674" />
      <point x="528" y="674" type="qcurve" />
      <point x="638" y="674" />
      <point x="740" y="601" />
      <point x="740" y="483" />
      <point x="717" y="449" type="qcurve" />
      <point x="674" y="386" />
      <point x="574" y="364" type="qcurve" />
      <point x="508" y="350" />
      <point x="442" y="349" type="qcurve" />
      <point x="429" y="349" type="line" />
      <point x="421" y="349" />
      <point x="410" y="353" type="qcurve" />
      <point x="410" y="179" type="line" />
      <point x="412" y="83" type="line" />
      <point x="412" y="75" />
      <point x="381" y="75" />
      <point x="349" y="88" />
    </contour>
    <contour>
      <point x="913" y="778" type="line" />
      <point x="111" y="778" type="line" />
      <point x="111" y="-25" type="line" />
      <point x="913" y="-25" type="line" />
    </contour>
    <contour>
      <point x="59" y="-76" type="line" />
      <point x="59" y="829" type="line" />
      <point x="965" y="829" type="line" />
      <point x="965" y="-76" type="line" />
    </contour>
  </outline>
</glyph>
<glyph name="u1F140" format="2">
  <unicode hex="1F140" />
  <advance width="1024" />
  <outline>
    <contour>
      <point x="621" y="157" type="qcurve" />
      <point x="714" y="220" />
      <point x="714" y="392" type="qcurve" />
      <point x="714" y="449" />
      <point x="674" y="557" />
      <point x="592" y="627" />
      <point x="527" y="627" type="qcurve" />
      <point x="489" y="627" />
      <point x="409" y="591" />
      <point x="375" y="557" type="qcurve" />
      <point x="299" y="483" />
      <point x="299" y="366" type="qcurve" />
      <point x="299" y="220" />
      <point x="382" y="156" type="qcurve" />
      <point x="425" y="122" />
      <point x="494" y="122" type="qcurve" />
      <point x="531" y="122" />
      <point x="571" y="132" type="qcurve" />
      <point x="501" y="197" type="line" />
      <point x="488" y="210" />
      <point x="474" y="214" />
      <point x="471" y="220" type="qcurve" />
      <point x="471" y="222" type="line" />
      <point x="471" y="234" />
      <point x="500" y="247" type="qcurve" />
      <point x="512" y="252" />
      <point x="519" y="252" type="qcurve" />
      <point x="521" y="252" type="line" />
      <point x="535" y="250" />
      <point x="545" y="237" />
      <point x="558" y="220" />
      <point x="598" y="181" />
    </contour>
    <contour>
      <point x="382" y="620" type="qcurve" />
      <point x="444" y="676" />
      <point x="606" y="676" />
      <point x="715" y="600" />
      <point x="773" y="469" />
      <point x="773" y="302" />
      <point x="718" y="160" />
      <point x="659" y="118" type="qcurve" />
      <point x="706" y="71" />
      <point x="778" y="43" />
      <point x="778" y="33" type="qcurve" />
      <point x="778" y="25" />
      <point x="721" y="25" />
      <point x="680" y="39" />
      <point x="642" y="69" />
      <point x="615" y="91" type="qcurve" />
      <point x="566" y="69" />
      <point x="412" y="70" />
      <point x="297" y="146" />
      <point x="241" y="280" />
      <point x="241" y="420" />
      <point x="268" y="517" />
      <point x="307" y="590" />
      <point x="347" y="630" />
      <point x="372" y="630" />
    </contour>
    <contour>
      <point x="913" y="778" type="line" />
      <point x="111" y="778" type="line" />
      <point x="111" y="-25" type="line" />
      <point x="913" y="-25" type="line" />
    </contour>
    <contour>
      <point x="59" y="-76" type="line" />
      <point x="59" y="829" type="line" />
      <point x="965" y="829" type="line" />
      <point x="965" y="-76" type="line" />
    </contour>
  </outline>
</glyph>
<glyph name="u1F141" format="2">
  <unicode hex="1F141" />
  <advance width="1024" />
  <outline>
    <contour>
      <point x="648" y="571" />
      <point x="579" y="623" />
      <point x="434" y="623" />
      <point x="391" y="606" type="qcurve" />
      <point x="391" y="391" type="line" />
      <point x="402" y="405" />
      <point x="413" y="406" type="qcurve" />
      <point x="424" y="406" type="line" />
      <point x="543" y="406" />
      <point x="599" y="449" type="qcurve" />
      <point x="638" y="478" />
      <point x="645" y="516" type="qcurve" />
      <point x="648" y="528" />
      <point x="648" y="529" type="qcurve" />
    </contour>
    <contour>
      <point x="333" y="98" type="qcurve" />
      <point x="335" y="180" type="line" />
      <point x="335" y="595" type="line" />
      <point x="334" y="595" type="line" />
      <point x="322" y="595" />
      <point x="295" y="628" />
      <point x="295" y="646" />
      <point x="302" y="646" type="qcurve" />
      <point x="429" y="669" />
      <point x="496" y="672" />
      <point x="519" y="672" type="qcurve" />
      <point x="587" y="672" />
      <point x="629" y="651" type="qcurve" />
      <point x="707" y="612" />
      <point x="707" y="532" type="qcurve" />
      <point x="707" y="488" />
      <point x="682" y="455" type="qcurve" />
      <point x="626" y="377" />
      <point x="511" y="369" type="qcurve" />
      <point x="492" y="367" />
      <point x="472" y="366" type="qcurve" />
      <point x="498" y="340" />
      <point x="532" y="301" type="qcurve" />
      <point x="686" y="129" />
      <point x="741" y="104" type="qcurve" />
      <point x="777" y="92" />
      <point x="777" y="80" type="qcurve" />
      <point x="777" y="73" />
      <point x="743" y="73" type="qcurve" />
      <point x="693" y="73" />
      <point x="642" y="115" type="qcurve" />
      <point x="611" y="140" />
      <point x="454" y="314" />
      <point x="416" y="352" />
      <point x="391" y="361" type="qcurve" />
      <point x="391" y="179" type="line" />
      <point x="393" y="83" type="line" />
      <point x="393" y="75" />
      <point x="364" y="75" />
      <point x="333" y="88" />
    </contour>
    <contour>
      <point x="913" y="778" type="line" />
      <point x="111" y="778" type="line" />
      <point x="111" y="-25" type="line" />
      <point x="913" y="-25" type="line" />
    </contour>
    <contour>
      <point x="59" y="-76" type="line" />
      <point x="59" y="829" type="line" />
      <point x="965" y="829" type="line" />
      <point x="965" y="-76" type="line" />
    </contour>
  </outline>
</glyph>
<glyph name="u1F142" format="2">
  <unicode hex="1F142" />
  <advance width="1024" />
  <outline>
    <contour>
      <point x="458" y="391" type="line" />
      <point x="326" y="422" />
      <point x="326" y="512" type="qcurve" />
      <point x="326" y="605" />
      <point x="422" y="653" type="qcurve" />
      <point x="467" y="676" />
      <point x="571" y="676" />
      <point x="650" y="647" />
      <point x="698" y="609" />
      <point x="698" y="577" />
      <point x="685" y="550" />
      <point x="671" y="550" />
      <point x="666" y="555" type="qcurve" />
      <point x="655" y="565" type="line" />
      <point x="638" y="587" />
      <point x="562" y="624" />
      <point x="486" y="624" />
      <point x="422" y="593" />
      <point x="384" y="546" />
      <point x="384" y="490" />
      <point x="428" y="453" />
      <point x="479" y="440" type="qcurve" />
      <point x="570" y="418" type="line" />
      <point x="728" y="376" />
      <point x="728" y="244" type="qcurve" />
      <point x="728" y="196" />
      <point x="702" y="156" type="qcurve" />
      <point x="647" y="70" />
      <point x="382" y="70" />
      <point x="302" y="160" type="qcurve" />
      <point x="298" y="164" />
      <point x="298" y="187" />
      <point x="321" y="216" />
      <point x="337" y="216" />
      <point x="340" y="210" type="qcurve" />
      <point x="387" y="138" />
      <point x="463" y="127" type="qcurve" />
      <point x="494" y="122" />
      <point x="554" y="122" />
      <point x="625" y="153" />
      <point x="669" y="205" />
      <point x="669" y="237" type="qcurve" />
      <point x="669" y="290" />
      <point x="611" y="350" />
      <point x="554" y="366" type="qcurve" />
    </contour>
    <contour>
      <point x="913" y="778" type="line" />
      <point x="111" y="778" type="line" />
      <point x="111" y="-25" type="line" />
      <point x="913" y="-25" type="line" />
    </contour>
    <contour>
      <point x="59" y="-76" type="line" />
      <point x="59" y="829" type="line" />
      <point x="965" y="829" type="line" />
      <point x="965" y="-76" type="line" />
    </contour>
  </outline>
</glyph>
<glyph name="u1F143" format="2">
  <unicode hex="1F143" />
  <advance width="1024" />
  <outline>
    <contour>
      <point x="482" y="99" type="qcurve" />
      <point x="483" y="173" type="line" />
      <point x="484" y="608" type="line" />
      <point x="380" y="602" type="line" />
      <point x="360" y="601" />
      <point x="319" y="596" />
      <point x="311" y="595" type="qcurve" />
      <point x="310" y="595" type="line" />
      <point x="300" y="595" />
      <point x="284" y="625" />
      <point x="284" y="652" />
      <point x="294" y="652" type="qcurve" />
      <point x="358" y="651" type="line" />
      <point x="379" y="651" type="line" />
      <point x="646" y="667" type="line" />
      <point x="665" y="668" />
      <point x="705" y="672" />
      <point x="715" y="673" type="qcurve" />
      <point x="717" y="673" type="line" />
      <point x="728" y="673" />
      <point x="742" y="644" />
      <point x="742" y="615" />
      <point x="732" y="615" type="qcurve" />
      <point x="667" y="618" type="line" />
      <point x="543" y="611" type="line" />
      <point x="544" y="172" type="line" />
      <point x="546" y="84" type="line" />
      <point x="546" y="75" />
      <point x="514" y="75" />
      <point x="482" y="88" />
    </contour>
    <contour>
      <point x="913" y="778" type="line" />
      <point x="111" y="778" type="line" />
      <point x="111" y="-25" type="line" />
      <point x="913" y="-25" type="line" />
    </contour>
    <contour>
      <point x="59" y="-76" type="line" />
      <point x="59" y="829" type="line" />
      <point x="965" y="829" type="line" />
      <point x="965" y="-76" type="line" />
    </contour>
  </outline>
</glyph>
<glyph name="u1F144" format="2">
  <unicode hex="1F144" />
  <advance width="1024" />
  <outline>
    <contour>
      <point x="368" y="648" type="qcurve" />
      <point x="366" y="568" type="line" />
      <point x="366" y="258" type="line" />
      <point x="366" y="183" />
      <point x="436" y="122" />
      <point x="549" y="122" />
      <point x="620" y="164" />
      <point x="660" y="238" />
      <point x="660" y="285" type="qcurve" />
      <point x="660" y="578" type="line" />
      <point x="658" y="663" type="line" />
      <point x="658" y="672" />
      <point x="692" y="672" />
      <point x="722" y="660" />
      <point x="722" y="650" type="qcurve" />
      <point x="720" y="577" type="line" />
      <point x="720" y="274" type="line" />
      <point x="720" y="213" />
      <point x="666" y="121" />
      <point x="567" y="70" />
      <point x="502" y="70" type="qcurve" />
      <point x="403" y="70" />
      <point x="306" y="162" />
      <point x="306" y="249" type="qcurve" />
      <point x="306" y="570" type="line" />
      <point x="304" y="660" type="line" />
      <point x="304" y="669" />
      <point x="322" y="670" type="qcurve" />
      <point x="368" y="670" />
    </contour>
    <contour>
      <point x="913" y="778" type="line" />
      <point x="111" y="778" type="line" />
      <point x="111" y="-25" type="line" />
      <point x="913" y="-25" type="line" />
    </contour>
    <contour>
      <point x="59" y="-76" type="line" />
      <point x="59" y="829" type="line" />
      <point x="965" y="829" type="line" />
      <point x="965" y="-76" type="line" />
    </contour>
  </outline>
</glyph>
<glyph name="u1F145" format="2">
  <unicode hex="1F145" />
  <advance width="1024" />
  <outline>
    <contour>
      <point x="265" y="655" type="qcurve" />
      <point x="265" y="667" />
      <point x="288" y="668" type="qcurve" />
      <point x="334" y="668" />
      <point x="336" y="651" type="qcurve" />
      <point x="339" y="642" />
      <point x="346" y="618" />
      <point x="360" y="582" type="qcurve" />
      <point x="427" y="418" />
      <point x="509" y="166" type="qcurve" />
      <point x="597" y="404" />
      <point x="689" y="632" />
      <point x="698" y="665" type="qcurve" />
      <point x="701" y="674" />
      <point x="729" y="674" />
      <point x="762" y="654" />
      <point x="762" y="643" type="qcurve" />
      <point x="762" y="640" />
      <point x="739" y="600" />
      <point x="634" y="355" />
      <point x="596" y="252" type="qcurve" />
      <point x="545" y="120" />
      <point x="542" y="89" type="qcurve" />
      <point x="539" y="70" />
      <point x="520" y="70" type="qcurve" />
      <point x="508" y="70" />
      <point x="477" y="95" />
      <point x="468" y="122" type="qcurve" />
      <point x="382" y="379" />
      <point x="291" y="594" type="qcurve" />
      <point x="275" y="634" />
      <point x="265" y="652" />
    </contour>
    <contour>
      <point x="913" y="778" type="line" />
      <point x="111" y="778" type="line" />
      <point x="111" y="-25" type="line" />
      <point x="913" y="-25" type="line" />
    </contour>
    <contour>
      <point x="59" y="-76" type="line" />
      <point x="59" y="829" type="line" />
      <point x="965" y="829" type="line" />
      <point x="965" y="-76" type="line" />
    </contour>
  </outline>
</glyph>
<glyph name="u1F146" format="2">
  <unicode hex="1F146" />
  <advance width="1024" />
  <outline>
    <contour>
      <point x="474" y="640" type="qcurve" />
      <point x="474" y="656" />
      <point x="505" y="656" type="qcurve" />
      <point x="519" y="656" />
      <point x="548" y="646" />
      <point x="549" y="637" type="qcurve" />
      <point x="556" y="608" type="line" />
      <point x="627" y="372" />
      <point x="669" y="166" type="qcurve" />
      <point x="730" y="394" />
      <point x="792" y="593" />
      <point x="804" y="643" />
      <point x="811" y="666" type="qcurve" />
      <point x="813" y="674" />
      <point x="840" y="674" />
      <point x="876" y="653" />
      <point x="876" y="642" type="qcurve" />
      <point x="876" y="639" />
      <point x="867" y="621" type="qcurve" />
      <point x="827" y="534" />
      <point x="709" y="120" />
      <point x="697" y="70" />
      <point x="664" y="70" />
      <point x="633" y="96" />
      <point x="626" y="122" type="qcurve" />
      <point x="567" y="380" />
      <point x="514" y="566" type="qcurve" />
      <point x="478" y="448" />
      <point x="415" y="216" />
      <point x="391" y="136" />
      <point x="385" y="106" />
      <point x="373" y="71" />
      <point x="342" y="71" />
      <point x="311" y="97" />
      <point x="295" y="168" />
      <point x="265" y="285" />
      <point x="196" y="560" />
      <point x="159" y="651" type="qcurve" />
      <point x="158" y="655" type="line" />
      <point x="158" y="668" />
      <point x="224" y="669" />
      <point x="226" y="652" type="qcurve" />
      <point x="301" y="387" />
      <point x="346" y="167" type="qcurve" />
      <point x="375" y="287" />
      <point x="471" y="612" />
    </contour>
    <contour>
      <point x="913" y="778" type="line" />
      <point x="111" y="778" type="line" />
      <point x="111" y="-25" type="line" />
      <point x="913" y="-25" type="line" />
    </contour>
    <contour>
      <point x="59" y="-76" type="line" />
      <point x="59" y="829" type="line" />
      <point x="965" y="829" type="line" />
      <point x="965" y="-76" type="line" />
    </contour>
  </outline>
</glyph>
<glyph name="u1F147" format="2">
  <unicode hex="1F147" />
  <advance width="1024" />
  <outline>
    <contour>
      <point x="477" y="390" type="line" />
      <point x="436" y="455" />
      <point x="325" y="612" />
      <point x="298" y="641" />
      <point x="298" y="645" type="qcurve" />
      <point x="298" y="656" />
      <point x="332" y="671" />
      <point x="359" y="671" />
      <point x="364" y="665" type="qcurve" />
      <point x="376" y="641" />
      <point x="422" y="571" type="qcurve" />
      <point x="515" y="432" type="line" />
      <point x="551" y="475" />
      <point x="676" y="659" type="qcurve" />
      <point x="680" y="664" />
      <point x="701" y="665" />
      <point x="731" y="646" />
      <point x="731" y="632" />
      <point x="723" y="623" type="qcurve" />
      <point x="684" y="582" />
      <point x="545" y="384" type="qcurve" />
      <point x="657" y="214" />
      <point x="713" y="151" type="qcurve" />
      <point x="737" y="123" />
      <point x="753" y="104" />
      <point x="753" y="100" type="qcurve" />
      <point x="753" y="90" />
      <point x="721" y="74" />
      <point x="693" y="74" />
      <point x="687" y="81" type="qcurve" />
      <point x="679" y="92" />
      <point x="652" y="133" />
      <point x="607" y="197" />
      <point x="543" y="294" />
      <point x="510" y="343" type="qcurve" />
      <point x="456" y="263" />
      <point x="351" y="111" />
      <point x="335" y="84" type="qcurve" />
      <point x="329" y="76" />
      <point x="297" y="76" />
      <point x="268" y="88" />
      <point x="268" y="96" type="qcurve" />
      <point x="268" y="100" />
      <point x="321" y="160" />
      <point x="337" y="186" type="qcurve" />
    </contour>
    <contour>
      <point x="913" y="778" type="line" />
      <point x="111" y="778" type="line" />
      <point x="111" y="-25" type="line" />
      <point x="913" y="-25" type="line" />
    </contour>
    <contour>
      <point x="59" y="-76" type="line" />
      <point x="59" y="829" type="line" />
      <point x="965" y="829" type="line" />
      <point x="965" y="-76" type="line" />
    </contour>
  </outline>
</glyph>
<glyph name="u1F148" format="2">
  <unicode hex="1F148" />
  <advance width="1024" />
  <outline>
    <contour>
      <point x="483" y="100" type="qcurve" />
      <point x="484" y="174" type="line" />
      <point x="484" y="327" type="line" />
      <point x="405" y="471" />
      <point x="323" y="590" type="qcurve" />
      <point x="299" y="624" />
      <point x="283" y="643" />
      <point x="283" y="647" type="qcurve" />
      <point x="283" y="656" />
      <point x="313" y="666" />
      <point x="345" y="666" />
      <point x="355" y="650" />
      <point x="370" y="621" />
      <point x="450" y="496" />
      <point x="514" y="383" type="qcurve" />
      <point x="551" y="445" />
      <point x="676" y="642" />
      <point x="688" y="664" type="qcurve" />
      <point x="692" y="672" />
      <point x="723" y="672" />
      <point x="753" y="658" />
      <point x="753" y="650" type="qcurve" />
      <point x="753" y="647" />
      <point x="730" y="621" />
      <point x="678" y="546" />
      <point x="626" y="462" />
      <point x="580" y="386" />
      <point x="549" y="333" />
      <point x="545" y="327" type="qcurve" />
      <point x="545" y="173" type="line" />
      <point x="545" y="163" />
      <point x="546" y="129" />
      <point x="547" y="95" />
      <point x="547" y="76" />
      <point x="515" y="76" />
      <point x="483" y="90" />
    </contour>
    <contour>
      <point x="913" y="778" type="line" />
      <point x="111" y="778" type="line" />
      <point x="111" y="-25" type="line" />
      <point x="913" y="-25" type="line" />
    </contour>
    <contour>
      <point x="59" y="-76" type="line" />
      <point x="59" y="829" type="line" />
      <point x="965" y="829" type="line" />
      <point x="965" y="-76" type="line" />
    </contour>
  </outline>
</glyph>
<glyph name="u1F151" format="2">
  <unicode hex="1F151" />
  <advance width="1024" />
  <outline>
    <contour>
      <point x="402" y="361" type="line" />
      <point x="453" y="365" />
      <point x="585" y="366" />
      <point x="665" y="309" />
      <point x="665" y="260" type="qcurve" />
      <point x="665" y="199" />
      <point x="540" y="135" />
      <point x="402" y="132" type="qcurve" />
    </contour>
    <contour>
      <point x="402" y="597" type="line" />
      <point x="449" y="608" />
      <point x="508" y="608" type="qcurve" />
      <point x="618" y="608" />
      <point x="617" y="541" type="qcurve" />
      <point x="617" y="496" />
      <point x="557" y="465" type="qcurve" />
      <point x="506" y="438" />
      <point x="402" y="438" type="qcurve" />
    </contour>
    <contour>
      <point x="304" y="128" type="line" />
      <point x="291" y="128" />
      <point x="270" y="113" />
      <point x="270" y="98" type="qcurve" />
      <point x="270" y="74" />
      <point x="334" y="60" />
      <point x="441" y="60" />
      <point x="487" y="63" type="qcurve" />
      <point x="753" y="77" />
      <point x="754" y="262" type="qcurve" />
      <point x="754" y="319" />
      <point x="684" y="403" />
      <point x="634" y="420" type="qcurve" />
      <point x="663" y="439" />
      <point x="708" y="502" />
      <point x="708" y="546" type="qcurve" />
      <point x="708" y="609" />
      <point x="609" y="689" />
      <point x="507" y="689" type="qcurve" />
      <point x="439" y="689" />
      <point x="314" y="669" />
      <point x="281" y="655" />
      <point x="281" y="625" />
      <point x="302" y="599" />
      <point x="314" y="592" type="qcurve" />
      <point x="314" y="128" type="line" />
    </contour>
    <contour>
      <point x="1001" y="477" />
      <point x="1001" y="274" />
      <point x="926" y="97" />
      <point x="791" y="-37" />
      <point x="613" y="-113" />
      <point x="411" y="-113" />
      <point x="233" y="-37" />
      <point x="98" y="97" />
      <point x="23" y="274" />
      <point x="23" y="477" />
      <point x="98" y="654" />
      <point x="233" y="790" />
      <point x="411" y="865" />
      <point x="613" y="865" />
      <point x="791" y="790" />
      <point x="926" y="654" />
    </contour>
  </outline>
</glyph>
<glyph name="u1F152" format="2">
  <unicode hex="1F152" />
  <advance width="1024" />
  <outline>
    <contour>
      <point x="790" y="237" type="qcurve" />
      <point x="790" y="266" />
      <point x="763" y="265" type="qcurve" />
      <point x="745" y="265" />
      <point x="730" y="247" type="qcurve" />
      <point x="680" y="181" />
      <point x="592" y="152" type="qcurve" />
      <point x="552" y="138" />
      <point x="516" y="137" type="qcurve" />
      <point x="434" y="137" />
      <point x="333" y="227" />
      <point x="333" y="413" />
      <point x="395" y="538" />
      <point x="495" y="607" />
      <point x="592" y="607" />
      <point x="658" y="584" />
      <point x="681" y="555" type="qcurve" />
      <point x="690" y="541" />
      <point x="726" y="541" />
      <point x="755" y="581" />
      <point x="755" y="610" />
      <point x="709" y="655" />
      <point x="620" y="691" />
      <point x="553" y="691" type="qcurve" />
      <point x="420" y="691" />
      <point x="242" y="478" />
      <point x="242" y="327" type="qcurve" />
      <point x="242" y="144" />
      <point x="374" y="82" type="qcurve" />
      <point x="435" y="54" />
      <point x="578" y="54" />
      <point x="681" y="99" />
      <point x="753" y="164" />
      <point x="790" y="224" />
    </contour>
    <contour>
      <point x="1001" y="477" />
      <point x="1001" y="274" />
      <point x="926" y="97" />
      <point x="791" y="-37" />
      <point x="613" y="-113" />
      <point x="411" y="-113" />
      <point x="233" y="-37" />
      <point x="98" y="97" />
      <point x="23" y="274" />
      <point x="23" y="477" />
      <point x="98" y="654" />
      <point x="233" y="790" />
      <point x="411" y="865" />
      <point x="613" y="865" />
      <point x="791" y="790" />
      <point x="926" y="654" />
    </contour>
  </outline>
</glyph>
<glyph name="u1F153" format="2">
  <unicode hex="1F153" />
  <advance width="1024" />
  <outline>
    <contour>
      <point x="384" y="598" type="line" />
      <point x="424" y="608" />
      <point x="528" y="608" />
      <point x="637" y="555" />
      <point x="707" y="454" />
      <point x="707" y="299" />
      <point x="664" y="245" type="qcurve" />
      <point x="578" y="137" />
      <point x="384" y="133" type="qcurve" />
    </contour>
    <contour>
      <point x="295" y="127" type="line" />
      <point x="281" y="126" type="line" />
      <point x="270" y="125" />
      <point x="250" y="111" />
      <point x="250" y="80" />
      <point x="292" y="62" />
      <point x="358" y="62" type="qcurve" />
      <point x="375" y="62" type="line" />
      <point x="539" y="62" />
      <point x="629" y="106" type="qcurve" />
      <point x="731" y="156" />
      <point x="773" y="256" type="qcurve" />
      <point x="796" y="309" />
      <point x="796" y="380" type="qcurve" />
      <point x="796" y="519" />
      <point x="605" y="690" />
      <point x="474" y="690" type="qcurve" />
      <point x="408" y="690" />
      <point x="295" y="671" />
      <point x="261" y="657" />
      <point x="261" y="627" />
      <point x="282" y="600" />
      <point x="295" y="593" type="qcurve" />
    </contour>
    <contour>
      <point x="1001" y="477" />
      <point x="1001" y="274" />
      <point x="926" y="97" />
      <point x="791" y="-37" />
      <point x="613" y="-113" />
      <point x="411" y="-113" />
      <point x="233" y="-37" />
      <point x="98" y="97" />
      <point x="23" y="274" />
      <point x="23" y="477" />
      <point x="98" y="654" />
      <point x="233" y="790" />
      <point x="411" y="865" />
      <point x="613" y="865" />
      <point x="791" y="790" />
      <point x="926" y="654" />
    </contour>
  </outline>
</glyph>
<glyph name="u1F154" format="2">
  <unicode hex="1F154" />
  <advance width="1024" />
  <outline>
    <contour>
      <point x="325" y="434" type="line" />
      <point x="303" y="434" />
      <point x="303" y="410" type="qcurve" />
      <point x="303" y="401" />
      <point x="315" y="372" />
      <point x="326" y="362" type="qcurve" />
      <point x="326" y="154" type="line" />
      <point x="319" y="115" type="line" />
      <point x="319" y="101" />
      <point x="350" y="60" />
      <point x="370" y="60" type="qcurve" />
      <point x="415" y="67" type="line" />
      <point x="477" y="68" />
      <point x="598" y="70" />
      <point x="659" y="70" type="qcurve" />
      <point x="731" y="68" type="line" />
      <point x="745" y="68" />
      <point x="757" y="89" />
      <point x="757" y="104" />
      <point x="753" y="119" type="qcurve" />
      <point x="742" y="155" />
      <point x="715" y="155" type="qcurve" />
      <point x="645" y="153" type="line" />
      <point x="413" y="148" type="line" />
      <point x="413" y="355" type="line" />
      <point x="574" y="365" type="line" />
      <point x="658" y="365" type="line" />
      <point x="684" y="365" />
      <point x="684" y="420" />
      <point x="656" y="452" />
      <point x="634" y="452" />
      <point x="590" y="445" />
      <point x="571" y="444" type="qcurve" />
      <point x="413" y="435" type="line" />
      <point x="413" y="590" type="line" />
      <point x="620" y="604" type="line" />
      <point x="705" y="604" type="line" />
      <point x="731" y="604" />
      <point x="730" y="659" />
      <point x="702" y="690" />
      <point x="680" y="690" />
      <point x="636" y="685" />
      <point x="617" y="683" type="qcurve" />
      <point x="395" y="669" type="line" />
      <point x="371" y="679" />
      <point x="334" y="679" />
      <point x="328" y="669" type="qcurve" />
      <point x="328" y="670" type="line" />
      <point x="323" y="662" />
      <point x="323" y="651" type="qcurve" />
      <point x="326" y="609" type="line" />
      <point x="326" y="432" type="line" />
      <point x="325" y="432" />
      <point x="325" y="433" type="qcurve" />
    </contour>
    <contour>
      <point x="1001" y="477" />
      <point x="1001" y="274" />
      <point x="926" y="97" />
      <point x="791" y="-37" />
      <point x="613" y="-113" />
      <point x="411" y="-113" />
      <point x="233" y="-37" />
      <point x="98" y="97" />
      <point x="23" y="274" />
      <point x="23" y="477" />
      <point x="98" y="654" />
      <point x="233" y="790" />
      <point x="411" y="865" />
      <point x="613" y="865" />
      <point x="791" y="790" />
      <point x="926" y="654" />
    </contour>
  </outline>
</glyph>
<glyph name="u1F155" format="2">
  <unicode hex="1F155" />
  <advance width="1024" />
  <outline>
    <contour>
      <point x="343" y="434" type="line" />
      <point x="321" y="434" />
      <point x="322" y="410" type="qcurve" />
      <point x="322" y="401" />
      <point x="334" y="372" />
      <point x="344" y="362" type="qcurve" />
      <point x="344" y="174" type="line" />
      <point x="342" y="100" type="line" />
      <point x="342" y="85" />
      <point x="383" y="60" />
      <point x="419" y="60" />
      <point x="435" y="76" />
      <point x="435" y="95" />
      <point x="434" y="129" />
      <point x="433" y="163" />
      <point x="433" y="173" type="qcurve" />
      <point x="433" y="355" type="line" />
      <point x="593" y="365" type="line" />
      <point x="677" y="365" type="line" />
      <point x="703" y="365" />
      <point x="702" y="420" />
      <point x="675" y="452" />
      <point x="652" y="452" />
      <point x="608" y="445" />
      <point x="590" y="444" type="qcurve" />
      <point x="433" y="435" type="line" />
      <point x="433" y="589" type="line" />
      <point x="638" y="603" type="line" />
      <point x="723" y="604" type="line" />
      <point x="749" y="604" />
      <point x="749" y="659" />
      <point x="721" y="690" />
      <point x="698" y="690" />
      <point x="654" y="685" />
      <point x="635" y="683" type="qcurve" />
      <point x="414" y="669" type="line" />
      <point x="390" y="679" />
      <point x="368" y="679" type="qcurve" />
      <point x="341" y="679" />
      <point x="341" y="650" type="qcurve" />
      <point x="341" y="641" type="line" />
      <point x="344" y="609" type="line" />
      <point x="344" y="432" type="line" />
      <point x="343" y="432" />
      <point x="343" y="433" type="qcurve" />
    </contour>
    <contour>
      <point x="1001" y="477" />
      <point x="1001" y="274" />
      <point x="926" y="97" />
      <point x="791" y="-37" />
      <point x="613" y="-113" />
      <point x="411" y="-113" />
      <point x="233" y="-37" />
      <point x="98" y="97" />
      <point x="23" y="274" />
      <point x="23" y="477" />
      <point x="98" y="654" />
      <point x="233" y="790" />
      <point x="411" y="865" />
      <point x="613" y="865" />
      <point x="791" y="790" />
      <point x="926" y="654" />
    </contour>
  </outline>
</glyph>
<glyph name="u1F157" format="2">
  <unicode hex="1F157" />
  <advance width="1024" />
  <outline>
    <contour>
      <point x="742" y="84" type="qcurve" />
      <point x="739" y="172" type="line" />
      <point x="739" y="571" type="line" />
      <point x="741" y="646" type="line" />
      <point x="741" y="661" />
      <point x="700" y="685" />
      <point x="667" y="685" />
      <point x="648" y="670" />
      <point x="648" y="660" type="qcurve" />
      <point x="651" y="572" type="line" />
      <point x="651" y="456" type="line" />
      <point x="643" y="456" type="line" />
      <point x="633" y="455" />
      <point x="594" y="451" />
      <point x="574" y="450" type="qcurve" />
      <point x="378" y="438" type="line" />
      <point x="378" y="571" type="line" />
      <point x="380" y="646" type="line" />
      <point x="380" y="661" />
      <point x="339" y="685" />
      <point x="305" y="685" />
      <point x="287" y="670" />
      <point x="287" y="660" type="qcurve" />
      <point x="289" y="572" type="line" />
      <point x="289" y="438" type="line" />
      <point x="282" y="438" type="line" />
      <point x="256" y="438" />
      <point x="256" y="409" type="qcurve" />
      <point x="256" y="398" />
      <point x="272" y="357" />
      <point x="289" y="351" type="qcurve" />
      <point x="289" y="172" type="line" />
      <point x="288" y="98" type="line" />
      <point x="288" y="83" />
      <point x="329" y="59" />
      <point x="364" y="59" />
      <point x="381" y="73" />
      <point x="381" y="83" type="qcurve" />
      <point x="378" y="171" type="line" />
      <point x="378" y="358" type="line" />
      <point x="577" y="370" type="line" />
      <point x="600" y="371" type="line" />
      <point x="631" y="371" />
      <point x="651" y="369" type="qcurve" />
      <point x="651" y="173" type="line" />
      <point x="649" y="99" type="line" />
      <point x="649" y="84" />
      <point x="690" y="60" />
      <point x="725" y="60" />
      <point x="742" y="74" />
    </contour>
    <contour>
      <point x="1001" y="477" />
      <point x="1001" y="274" />
      <point x="926" y="97" />
      <point x="791" y="-37" />
      <point x="613" y="-113" />
      <point x="411" y="-113" />
      <point x="233" y="-37" />
      <point x="98" y="97" />
      <point x="23" y="274" />
      <point x="23" y="477" />
      <point x="98" y="654" />
      <point x="233" y="790" />
      <point x="411" y="865" />
      <point x="613" y="865" />
      <point x="791" y="790" />
      <point x="926" y="654" />
    </contour>
  </outline>
</glyph>
<glyph name="u1F158" format="2">
  <unicode hex="1F158" />
  <advance width="1024" />
  <outline>
    <contour>
      <point x="559" y="84" type="qcurve" />
      <point x="556" y="172" type="line" />
      <point x="556" y="571" type="line" />
      <point x="558" y="646" type="line" />
      <point x="558" y="661" />
      <point x="516" y="685" />
      <point x="480" y="685" />
      <point x="462" y="670" />
      <point x="462" y="660" type="qcurve" />
      <point x="464" y="572" type="line" />
      <point x="464" y="173" type="line" />
      <point x="463" y="99" type="line" />
      <point x="463" y="85" />
      <point x="507" y="60" />
      <point x="526" y="60" type="qcurve" />
      <point x="559" y="60" />
    </contour>
    <contour>
      <point x="1001" y="477" />
      <point x="1001" y="274" />
      <point x="926" y="97" />
      <point x="791" y="-37" />
      <point x="613" y="-113" />
      <point x="411" y="-113" />
      <point x="233" y="-37" />
      <point x="98" y="97" />
      <point x="23" y="274" />
      <point x="23" y="477" />
      <point x="98" y="654" />
      <point x="233" y="790" />
      <point x="411" y="865" />
      <point x="613" y="865" />
      <point x="791" y="790" />
      <point x="926" y="654" />
    </contour>
  </outline>
</glyph>
